<svg xmlns="http://www.w3.org/2000/svg" xmlns:xlink="http://www.w3.org/1999/xlink" viewBox="0 0 208.01 230.35">
  <style>
    <![CDATA[
    .B {
      fill: #fff
    }

    .C {
      fill: #eee
    }

    .D {
      fill: rgb(3, 62, 68)
    }

    .E {
      fill: rgb(28 209 198)
    }

    .F {
      fill: rgb(30, 99, 93)
    }

    .G {
      fill: rgb(29, 134, 124)
    }

    .H {
      fill: rgb(50, 179, 128)
    }

    .I {
      <!-- fill: #fff99893 -->
    }

    .J {
      fill: #ccc
    }

    .green {
      fill: rgb(50, 179, 128)
    }

    .green-dark {
      fill: rgb(16, 137, 87)
    }

    .red {
      fill: rgb(255, 51, 51)
    }

    .red-dark {
      fill: rgb(212, 15, 15)
    }

    .sky {
      fill: rgba(13, 83, 86, 0.2)
    }

    .ground {
      fill: rgba(13, 83, 86, 0.2)
    }

    .face,
    .skin {
      fill: rgb(255 198 194)
    }

    .skin-dark {
      fill: rgb(235 182 179)
    }

    ]]>
  </style>
  <path d="M171.604 1.972c11.191 5.139 17.51 19.972 16.3 31.921-1.086 10.749-9.706 18.713-26.9 34.2-23.875 21.5-30.882 21.235-37.052 34.2-7.647 16.072-4.914 33.365-4.332 37.051 2.335 14.769 7.776 16.586 8.778 27.247 2.155 22.921-20.39 42.3-23.94 45.259-20.241 16.845-56.675 26.989-81.512 9.006-24.307-17.6-23.212-51.783-22.8-64.64.813-25.407 10.967-43.456 19.723-58.6 18.037-31.193 43.262-48.08 93.71-81.854C114.992 14.816 136.259.889 160.32.03a23.945 23.945 0 0 1 11.284 1.942z" class="sky"/>
  <path d="M150.934 26.065a1.888 1.888 0 1 0 3.776 0 1.888 1.888 0 1 0-3.776 0zm7.167 0a1.888 1.888 0 1 0 3.776 0 1.888 1.888 0 1 0-3.776 0z" class="C" />
  <path d="M108.498 179.723l26.052 10.463 32.249-80.3-22.021-8.844a4.344 4.344 0 0 0-5.649 2.412z" class="D" />
  <path d="M155.315 185.578l-49.882-8.843 12.433-70.134 49.882 8.843z" class="J" />
  <g class="F">
    <path d="M152.652 120.463l-22.276-3.949.089-.5 22.276 3.949zm4.905-.439l-31.635-5.608.089-.5 31.635 5.608z" />
    <use xlink:href="#B" />
    <use xlink:href="#B" x="-0.427" y="2.405" />
    <use xlink:href="#B" x="-1.279" y="7.215" />
    <use xlink:href="#B" x="-1.706" y="9.621" />
    <use xlink:href="#B" x="-2.132" y="12.026" />
    <use xlink:href="#B" x="-4.008" y="22.605" />
    <path d="M155.324 152.241l-38.393-6.821.089-.5 38.393 6.821z" />
    <use xlink:href="#B" x="-4.892" y="27.593" />
    <use xlink:href="#B" x="-5.334" y="30.087" />
    <use xlink:href="#B" x="-5.776" y="32.582" />
    <use xlink:href="#B" x="-6.218" y="35.076" />
    <use xlink:href="#B" x="-6.661" y="37.57" />
  </g>
  <path d="M155.919 186.625l-48.988-12.918 18.163-68.877 48.988 12.918z" class="B" />
  <g class="F">
    <path d="M158.591 121.51l-21.876-5.769.13-.491 21.876 5.769zm4.923-.036l-31.07-8.177.129-.491 31.07 8.177z" />
    <use xlink:href="#C" />
    <use xlink:href="#D" />
    <use xlink:href="#D" x="-1.243" y="4.724" />
    <use xlink:href="#D" x="-1.865" y="7.087" />
    <use xlink:href="#D" x="-2.487" y="9.449" />
    <use xlink:href="#D" x="-5.221" y="19.839" />
    <use xlink:href="#C" x="-6.488" y="24.652" />
    <use xlink:href="#C" x="-7.132" y="27.102" />
    <use xlink:href="#D" x="-7.155" y="27.188" />
    <use xlink:href="#D" x="-7.8" y="29.638" />
    <use xlink:href="#C" x="-9.066" y="34.45" />
    <use xlink:href="#C" x="-9.711" y="36.9" />
  </g>
  <path d="M118.383 183.692l52.448 21.064 30.59-76.169-44.073-27.188a4.692 4.692 0 0 0-6.818 2.245z" class="green-dark" />
  <path d="M35.398 131.399h-3.587a3.751 3.751 0 0 1 2.119-.641h89.851c4.7 0 8.512 3.378 8.512 7.545v4.793c0 4.167-3.811 7.545-8.512 7.545l-88.846-.027z" class="green" />
  <g class="green-dark">
    <use xlink:href="#E" />
    <use xlink:href="#E" x="-21.044" />
  </g>
  <path d="M86.407 130.776c4.5 0 8.14 3.23 8.14 7.216v5.416c0 3.985-3.644 7.216-8.14 7.216H30.468v-1.212h.231l14.22-1.194 2.874-9.995s-5.547-5.523-5.909-5.666-11.185-.575-11.185-.575h-.231v-1.2z" class="green-dark" />
  <g class="B">
    <path d="M34.101 140.663c0-5.844-3.407-8.676-3.407-8.676h54.568c4.129 0 7.477 2.967 7.477 6.628v4.169c0 3.66-3.347 6.628-7.477 6.628H30.694s3.407-1.391 3.407-8.749z" />
    <path d="M92.739 138.615v4.169a5.929 5.929 0 0 1-.218 1.589c-1.84-3.992-5.368-7.836-12.082-9.072-15.677-2.886-49.744-3.314-49.744-3.314h54.568c4.128-.001 7.476 2.967 7.476 6.628z" />
  </g>
  <path d="M36.876 171.14h-4.059a3.964 3.964 0 0 1 2.4-.8H136.91a9.54 9.54 0 0 1 9.634 9.444v6a9.54 9.54 0 0 1-9.634 9.444l-100.556-.034z" class="D" />
  <path d="M94.61 170.358a9.124 9.124 0 0 1 9.213 9.032v6.78a9.124 9.124 0 0 1-9.213 9.032H31.303v-1.516h.262l16.094-1.494 3.253-12.511-6.688-7.092c-.41-.179-12.659-.719-12.659-.719h-.262v-1.512z" class="F" />
  <g class="B">
    <path d="M35.409 182.736c0-7.314-3.856-10.86-3.856-10.86h61.76a8.38 8.38 0 0 1 8.462 8.3v5.219a8.38 8.38 0 0 1-8.462 8.3h-61.76s3.856-1.749 3.856-10.959z" />
    <path d="M101.775 180.17v5.219a8.157 8.157 0 0 1-.247 1.99 18.1 18.1 0 0 0-13.675-11.356c-17.743-3.613-56.3-4.148-56.3-4.148h61.76a8.38 8.38 0 0 1 8.462 8.295z" />
  </g>
  <path d="M149.895 151.227h4.061a4.678 4.678 0 0 0-2.4-.637H49.823c-5.323 0-9.638 3.355-9.638 7.494v4.76c0 4.139 4.315 7.494 9.638 7.494l100.6-.026z" class="red" />
  <path fill="#ff06bfad" d="M92.139 150.608c-5.09 0-9.217 3.208-9.217 7.166v5.38c0 3.958 4.126 7.167 9.217 7.167h63.336v-1.2h-.262l-16.1-1.186-3.254-9.927s6.281-5.485 6.69-5.627 12.664-.571 12.664-.571h.262v-1.2z" class="red-dark" />
  <g class="B">
    <path d="M151.363 160.428a10.938 10.938 0 0 1 3.857-8.617H93.436c-4.675 0-8.466 2.947-8.466 6.583v4.141c0 3.635 3.79 6.583 8.466 6.583h61.784s-3.857-1.381-3.857-8.69z" />
    <path d="M84.97 158.394v4.141a5.206 5.206 0 0 0 .247 1.579c2.084-3.964 6.078-7.783 13.68-9.011 17.75-2.866 56.323-3.291 56.323-3.291H93.436c-4.676-.001-8.466 2.946-8.466 6.582z" />
  </g>
  <path d="M58.823 162.844v-4.76c0-4.139 4.315-7.494 9.638-7.494h-9.664c-5.323 0-9.637 3.355-9.637 7.494v4.76c0 4.139 4.315 7.494 9.637 7.494h9.533c-5.261-.056-9.507-3.389-9.507-7.494z" class="red-dark" />
  <path d="M156.596 195.988h5.091a6.42 6.42 0 0 0-3.008-.712H31.139c-6.673 0-12.082 3.749-12.082 8.373v5.318c0 4.624 5.409 8.373 12.082 8.373l126.114-.03z" class="G" />
  <path fill="#fff4a640" d="M84.188 195.296c-6.381 0-11.554 3.585-11.554 8.007v6.01c0 4.422 5.173 8.007 11.554 8.007h79.4v-1.342h-.328l-20.184-1.325-4.08-11.091s7.874-6.129 8.388-6.287 15.876-.638 15.876-.638h.328V195.3z" />
  <g class="B">
    <path d="M158.437 206.268a11.879 11.879 0 0 1 4.836-9.628H85.815c-5.861 0-10.613 3.293-10.613 7.355v4.626c0 4.062 4.752 7.355 10.613 7.355h77.462s-4.84-1.542-4.84-9.708z" />
    <path d="M75.202 203.995v4.626a5.244 5.244 0 0 0 .31 1.764c2.612-4.429 7.619-8.7 17.15-10.068 22.253-3.2 70.61-3.677 70.61-3.677H85.815c-5.861 0-10.613 3.293-10.613 7.355z" />
  </g>
  <path d="M189.778 219.622H5.269a1.217 1.217 0 0 1-1.217-1.217h0a1.217 1.217 0 0 1 1.217-1.217h184.509a1.217 1.217 0 0 1 1.217 1.217h0a1.217 1.217 0 0 1-1.217 1.217z" class="ground"/>
  <path d="M192.129 136.996l-35.708-20.424-4.826 9.56 36.538 19.33z" class="B" />
  <path d="M162.784 63.177s.282 2.777 2.473 2.969c-2.191.192-2.473 2.969-2.473 2.969s-.281-2.777-2.473-2.969c2.192-.192 2.473-2.969 2.473-2.969z" class="E" />
  <path fill="#ffff5b7e" d="M201.422 144.134s.422 4.166 3.71 4.454c-3.287.288-3.71 4.454-3.71 4.454s-.423-4.166-3.71-4.454c3.287-.288 3.71-4.454 3.71-4.454z" />
  <path d="M191.114 40.467s.375 3.7 3.294 3.955c-2.919.256-3.294 3.955-3.294 3.955s-.375-3.7-3.295-3.955c2.919-.256 3.295-3.955 3.295-3.955zM17.359 160.537s.252 2.489 2.217 2.661c-1.964.172-2.217 2.662-2.217 2.662s-.253-2.489-2.217-2.662c1.968-.172 2.217-2.661 2.217-2.661z" class="H" />
  <path d="M177.996 90.571s.252 2.484 2.212 2.656c-1.96.172-2.212 2.656-2.212 2.656s-.252-2.484-2.212-2.656c1.962-.172 2.212-2.656 2.212-2.656zm-34.124-65.198s.252 2.484 2.212 2.656c-1.96.172-2.212 2.656-2.212 2.656s-.252-2.484-2.212-2.656c1.96-.172 2.212-2.656 2.212-2.656zM41.121 56.991s.33 3.25 2.895 3.475c-2.565.225-2.895 3.475-2.895 3.475s-.33-3.25-2.895-3.475c2.565-.225 2.895-3.475 2.895-3.475zm-22.065 56.303s.483 4.762 4.241 5.092c-3.758.33-4.241 5.092-4.241 5.092s-.483-4.762-4.241-5.092c3.759-.33 4.241-5.092 4.241-5.092zm114.911-43.267s.375 3.7 3.294 3.955c-2.919.256-3.294 3.955-3.294 3.955s-.375-3.7-3.294-3.955c2.919-.256 3.294-3.955 3.294-3.955z" fill="#ffff5b7e" />
  <path d="M204.714 109.961s.375 3.7 3.294 3.955c-2.919.256-3.294 3.955-3.294 3.955s-.375-3.7-3.294-3.955c2.921-.256 3.294-3.955 3.294-3.955zM21.403 34.056s.267 2.635 2.347 2.817c-2.079.182-2.347 2.817-2.347 2.817s-.267-2.635-2.347-2.817c2.083-.182 2.347-2.817 2.347-2.817zm27.759 65.139s.428 4.22 3.758 4.512c-3.33.292-3.758 4.512-3.758 4.512s-.428-4.22-3.758-4.512c3.33-.292 3.758-4.512 3.758-4.512z" class="E" />
  <path d="M12.215 71.717s.292 3.348 2.566 3.58c-2.274.232-2.566 3.58-2.566 3.58s-.292-3.348-2.566-3.58c2.274-.232 2.566-3.58 2.566-3.58zm54.45-53.519s.293 3.358 2.574 3.59c-2.281.232-2.574 3.59-2.574 3.59s-.293-3.358-2.574-3.59c2.281-.237 2.574-3.59 2.574-3.59z" class="H" />
  <path d="M102.737 85.581l5.762.462-1.86 4.661-2.908-.233-1.211 3.885-.556-.266a35.637 35.637 0 0 1-.692-3.807z" class="B" />
  <path d="M106.026 128.441v2.031a.3.3 0 0 0 .3.3h4.74a.344.344 0 0 0 .185-.635l-2.66-1.7a2.515 2.515 0 0 1-2.565.004z" class="skin-dark"/>
  <path d="M96.717 42.35a.094.094 0 0 1-.126-.106 10.566 10.566 0 0 0 .344-2.4c-.162-.075-.525 1.505-.69 1.524s.228-1.513.041-1.565-.5 1.357-.584 1.363.068-1.376-.024-1.473-.435 1.359-.538 1.4-.2-1.047-.293-1.049-.156-.02-.637 2.481a3.47 3.47 0 0 1-.191 1.132l.361.737 1.119.037 2.41-2.333c-.02-.133-.125-.166-1.192.252zm11.515.553a.094.094 0 0 0 .161-.036 10.576 10.576 0 0 1 .789-2.3c.179.008-.219 1.579-.08 1.671s.487-1.451.676-1.412-.175 1.435-.1 1.479.567-1.256.693-1.3-.232 1.408-.157 1.487.655-.841.739-.8.148.053-.564 2.5a3.468 3.468 0 0 0-.346 1.094l-.657.491-1.013-.477-1.082-3.175c.079-.11.182-.08.941.778zM99.341 62.93l.018 4.276-4.154-.64.693-4.808z" class="skin" />
  <path d="M95.579 63.971l.319-2.213 3.447 1.578v.844a6.268 6.268 0 0 1-3.766-.209z" class="skin-dark"/>
  <path d="M91.836 128.215v2.227a.333.333 0 0 1-.333.333h-5.216a.377.377 0 0 1-.2-.7l2.926-1.865a2.774 2.774 0 0 0 2.823.005z" class="skin-dark"/>
  <g class="G">
    <path d="M87.073 90.368c.01-.476-1.23.928-1.206.548.487-7.91 15.942-1.278 15.942-1.278l3.773 2.768 4.259 36.661a7.653 7.653 0 0 1-3.833.122l-9.432-31.416-1.16-.446a65.546 65.546 0 0 1-8.343-6.959zm-1.225.87l-.012.284.012-.284z" />
    <path d="M85.836 91.527l-.01.3.01-.3zm-.012.345l-.008.331.008-.331zm.043-.957l-.015.265.015-.265z" />
    <path d="M85.868 89.118a103.605 103.605 0 0 0 9.547 8.209l1.16.446-1.16-.446-3.586 31.74s-2.556.487-4.016-.3c.001-.004-2.153-30.217-1.945-39.649zm23.972 39.949a9.948 9.948 0 0 1-2.11.332 9.948 9.948 0 0 0 2.11-.332zm-3.387.245l.313.051-.313-.051z" />
    <path d="M107.73 129.399a6.2 6.2 0 0 1-.8-.018 6.2 6.2 0 0 0 .8.018z" />
  </g>
  <path d="M105.585 92.406l.608 5.232c-1.608.623-5.529 1.288-8.483-5.174a8.237 8.237 0 0 1-1-4.558 41.947 41.947 0 0 1 5.1 1.731z" class="F"/>
  <path d="M91.401 71.049c.179 0 2.855-6.067 2.855-6.067 2.29 1.606 5.4.491 5.4.491s12.507 22.887 4.119 26.456-16.3-.773-16.3-.773l-1.785-4.818c0-.178 5.532-15.289 5.711-15.289z" class="B" />
  <path d="M107.699 45.353s.542 10.859-.476 12.849c-3.376 6.6-7.57 7.272-7.57 7.272s-1.442 23.095-.253 28.627c0 0 3.956 1.22 9.785-1.517 0 0-4.461-17.9-4.223-20.165 0 0 7.138-6.365 7.376-13.86a50.612 50.612 0 0 0-1.725-14.157zM88.456 93.267a105.408 105.408 0 0 1 2.409-16.745 84.9 84.9 0 0 1 3.391-11.54c-2.632-2.9-2.195-5.521-1.963-8.923.268-3.926 4.1-11.778 4.1-11.778l-2.588-1.7c-12.4 14.9-5.532 26.768-5.532 26.768s-4.64 16.418-5.264 21.414a37.792 37.792 0 0 0 5.447 2.504z" class="E" />
  <path d="M104.842 72.393a2.746 2.746 0 0 1-.5-.474 5.035 5.035 0 0 1-.987-2.148 6.243 6.243 0 0 0 1.062 2.085 2.538 2.538 0 0 0 .58.53l-.035.032v.047a1.357 1.357 0 0 1-.943-.221 4.292 4.292 0 0 1-.793-.569 5.712 5.712 0 0 0 .822.512 1.777 1.777 0 0 0 .794.206zM88.372 69.3a2.747 2.747 0 0 0 .567-.521 6.072 6.072 0 0 0 1.062-2.085 5.039 5.039 0 0 1-.987 2.148 2.757 2.757 0 0 1-.5.474 1.126 1.126 0 0 0 .349-.041 2.292 2.292 0 0 0 .448-.166 5.626 5.626 0 0 0 .822-.512 4.336 4.336 0 0 1-.793.569 2.344 2.344 0 0 1-.455.191.964.964 0 0 1-.509.026l-.1-.026z" class="C" />
  <path d="M93.383 54.206l-.251 2.934.464.292.857-3.573z" class="D" />
  <path d="M94.011 56.836a1 1 0 1 1-1.194-1.019 1.124 1.124 0 0 1 1.194 1.019z" class="skin-dark" />
  <path d="M93.246 59.549a9.684 9.684 0 0 1-.041-2.465l.027-.482a5.235 5.235 0 1 1 10.367 1.152 1.131 1.131 0 0 1 1.015.122 1.579 1.579 0 0 1-1.784 2.511 1 1 0 0 1-.2-.191 4.909 4.909 0 0 1-5.669 3.455 4.819 4.819 0 0 1-3.715-4.102z" class="face"/>
  <path d="M98.922 57.202a.457.457 0 1 0 .415-.285.458.458 0 0 0-.415.285zm-3.888-.582a.457.457 0 1 0 .416-.285.458.458 0 0 0-.416.285z" class="D" />
  <path d="M98.319 60.398a3 3 0 0 1-.734.252 2.319 2.319 0 0 1-.765.029 1.973 1.973 0 0 1-.719-.251 2.76 2.76 0 0 1-.6-.494 2.114 2.114 0 0 0 .56.554 1.8 1.8 0 0 0 .744.282 2.071 2.071 0 0 0 .793-.052 2.27 2.27 0 0 0 .721-.32z" class="I" />
  <path d="M98.554 56.275a4.289 4.289 0 0 1 .683-.073 2.257 2.257 0 0 1 .635.076 2.089 2.089 0 0 1 .584.253 6.524 6.524 0 0 1 .56.4 1.514 1.514 0 0 0-.4-.608 1.487 1.487 0 0 0-.658-.367 1.554 1.554 0 0 0-.753-.013 1.441 1.441 0 0 0-.651.332zm-1.816-.304a1.444 1.444 0 0 0-.51-.521 1.558 1.558 0 0 0-.717-.229 1.489 1.489 0 0 0-.741.137 1.52 1.52 0 0 0-.575.448 6.307 6.307 0 0 1 .659-.2 2.091 2.091 0 0 1 .634-.053 2.259 2.259 0 0 1 .626.132 4.309 4.309 0 0 1 .624.286z" class="D" />
  <path d="M97.529 56.552a6.577 6.577 0 0 0-.6.646 6.2 6.2 0 0 0-.512.719 1.719 1.719 0 0 0-.224.529c-.015.1-.008.189.153.347a2.115 2.115 0 0 0 .345.286 2.853 2.853 0 0 0 .383.22 4.814 4.814 0 0 1-.622-.6.846.846 0 0 1-.1-.156.337.337 0 0 1 .031-.163 2.372 2.372 0 0 1 .19-.373l.47-.727.486-.728z" class="I" />
  <g class="D">
    <path d="M93.929 51.072s-1.541-.3.357-1.228 6.553-1.473 8.986.612c0 0 .818-1.05 1.554-.589s-.766.971-.766.971 1.027.2 1.226.769c.147.422-.482.3-.82.2.558.23 2.2 1.781.068 6.017a37.131 37.131 0 0 1-2.818-3.658s-4.906 1.612-4.012.275c0 0-5.718 1.438-4.332-1.154.001.004-2.107-.315.557-2.215z" />
    <path d="M104.535 57.829a1.006 1.006 0 0 0-.936-.074c-.566.21-.925 1.479-.925 1.479s-1.851 1.516-.949-5.092c.887-6.492 2.115 1.081 2.115 1.081z" />
  </g>
  <path d="M107.236 37.509l-8.465-.6a.778.778 0 0 1-.72-.831h0a.778.778 0 0 1 .831-.72l8.466.6a.778.778 0 0 1 .72.831h0a.778.778 0 0 1-.832.72z" class="H" />
  <path fill="#ffe5e5e5" d="M104.798 12.016l2.958 7.252 7.651 1.674-5.983 5.055.772 7.794-6.656-4.128-7.174 3.143 1.869-7.606-5.206-5.852 7.811-.573z" />
  <g fill="#ffa272ff">
    <path d="M104.798 12.016l-.758 10.641 3.717-3.389z" />
    <path d="M115.404,20.942l-11.368,1.715 5.385,3.34Z" />
    <path d="M104.04 22.657l-3.2-3.882-7.811.573z" />
    <path d="M96.366 32.806l7.673-10.149-5.8 2.543z" />
    <path d="M110.197 33.791l-6.157-11.134-.5 7.006z" />
  </g>
  <path fill="#ff6f747a" d="M96.561 36.914l12.861.916-.322 4.521-12.861-.916z" />
  <path d="M96.239 41.434l.035-.494 12.861.916-.035.494zm.296-4.153l.035-.494 12.861.916-.035.494z" fill="#ffcdd6e0" />
  <path d="M109.311 38.045l-12.669-.9a.582.582 0 0 1-.539-.622h0a.582.582 0 0 1 .617-.547l12.669.9a.582.582 0 0 1 .539.622h0a.582.582 0 0 1-.617.547z" class="C" />
  <path fill="#ff6f747a" d="M109.267 43.412l-13.518-.963a.157.157 0 0 1-.145-.167l.06-.849a.157.157 0 0 1 .167-.145l13.518.963a.157.157 0 0 1 .145.167l-.061.849a.157.157 0 0 1-.166.145z" />
  <path d="M105.147 40.869l-4.891-.348a1.1 1.1 0 0 1-1.022-1.179h0a1.1 1.1 0 0 1 1.179-1.022l4.891.348a1.1 1.1 0 0 1 1.022 1.179h0a1.1 1.1 0 0 1-1.179 1.022z" class="C" />
  <path d="M104.441 36.223l-2.721-.194.018-.252a13.66 13.66 0 0 1 1.8-6.114h0a13.24 13.24 0 0 1 .918 6.308z" class="G" />
  <defs>
    <path id="B" d="M159.774 127.142l-38.38-6.804.089-.5 38.38 6.804z" />
    <path id="C" d="M165.142 128.748l-37.692-9.939.13-.491 37.692 9.939z" />
    <path id="D" d="M164.52 131.111l-37.695-9.92.129-.491 37.695 9.92z" />
    <path id="E" d="M124.756 143.096v-4.793c0-4.167-3.811-7.545-8.512-7.545h1.929c4.7 0 8.512 3.378 8.512 7.545v4.793c0 4.167-3.811 7.545-8.512 7.545h-1.9c4.686-.013 8.483-3.386 8.483-7.545z" />
  </defs>
</svg>