<svg xmlns="http://www.w3.org/2000/svg" width="500" height="500" fill="none" viewBox="0 0 90 90">
  <path fill="#11b570" fill-rule="evenodd" d="M70.51 5.604c.17-.008.343-.012.515-.012.173 0 .345.004.516.012l-.004.083c-.17-.008-.34-.012-.512-.012-.171 0-.342.004-.511.012l-.004-.083zm2.057.1c.342.05.68.117 1.01.2l-.02.081c-.328-.082-.663-.148-1.002-.198l.012-.083zm-4.094.2c.331-.083.668-.15 1.011-.2l.012.083c-.34.05-.674.116-1.003.198l-.02-.08zm6.09.299c.326.116.644.248.953.395l-.036.075c-.307-.145-.622-.276-.944-.392l.028-.078zm-8.028.395c.31-.147.627-.279.952-.395l.028.078c-.322.116-.638.247-.944.392l-.036-.075zm9.89.486c.294.178.58.369.856.574l-.05.066c-.273-.203-.557-.392-.85-.568l.043-.072zm-11.655.574c.276-.205.561-.396.857-.574l.043.072c-.293.176-.577.365-.85.568l-.05-.066zm13.307.654c.254.23.498.474.728.728l-.061.056c-.23-.252-.47-.493-.723-.723l.056-.061zm-14.832.728c.231-.254.474-.497.729-.728l.056.061c-.253.23-.494.47-.723.723l-.062-.056zm16.215.797c.204.275.396.56.573.856l-.072.043c-.175-.293-.365-.576-.568-.85l.067-.05zm-17.442.856c.177-.295.368-.581.573-.856l.067.05c-.203.273-.393.556-.569.849l-.071-.043zm-.882 1.86c.117-.325.249-.642.395-.952l.076.036c-.146.307-.277.622-.392.944l-.079-.028zm19.383-.952c.147.31.279.627.395.952l-.078.028c-.116-.322-.246-.637-.392-.944l.075-.036zm.694 1.939c.083.33.15.668.2 1.01l-.082.013c-.05-.34-.117-.675-.199-1.003l.081-.02zm-20.575 1.01c.05-.342.117-.68.2-1.01l.08.02c-.081.328-.148.663-.198 1.003l-.082-.012zm20.875 1.026c.008.171.012.343.012.516s-.004.344-.012.515l-.083-.004c.008-.17.012-.34.012-.511 0-.172-.004-.342-.012-.512l.083-.004zm-20.988.516c0-.173.005-.345.013-.516l.083.004c-.008.17-.012.34-.012.512 0 .171.004.342.012.511l-.083.004c-.008-.17-.013-.342-.013-.515zm20.888 1.541c-.05.343-.117.68-.2 1.011l-.08-.02c.081-.329.148-.663.198-1.003l.082.012zm-20.575 1.011c-.083-.331-.15-.668-.2-1.011l.082-.012c.05.34.117.674.199 1.003l-.081.02zm20.076.986c-.116.325-.248.643-.395.952l-.075-.035c.146-.307.276-.622.392-.945l.078.028zm-19.383.952c-.146-.31-.278-.627-.395-.952l.079-.028c.115.323.246.638.392.945l-.076.035zm18.502.909c-.177.295-.369.58-.573.856l-.067-.05c.203-.273.393-.556.569-.85l.071.044zm-17.442.856c-.205-.276-.396-.561-.573-.856l.071-.043c.176.293.366.576.569.85l-.067.049zm16.214.796c-.23.255-.474.498-.728.729l-.056-.062c.252-.229.494-.47.723-.723l.061.056zm-14.831.729c-.255-.231-.498-.474-.729-.729l.062-.056c.23.253.47.494.723.723l-.056.062zm13.307.654c-.276.205-.562.396-.857.573l-.043-.071c.293-.176.577-.366.85-.569l.05.067zm-11.654.573c-.296-.177-.581-.368-.857-.573l.05-.067c.273.203.557.393.85.569l-.043.071zm1.86.882c-.325-.117-.643-.248-.952-.395l.036-.075c.306.145.622.276.944.391l-.028.079zm8.029-.395c-.31.147-.627.278-.952.395l-.028-.079c.322-.115.637-.246.944-.391l.036.075zm-6.032.894c-.342-.05-.68-.118-1.01-.2l.02-.081c.328.082.662.148 1.002.198l-.012.083zm4.094-.2c-.332.082-.669.15-1.011.2l-.012-.083c.34-.05.674-.116 1.002-.198l.02.08zm-2.553.312c-.172 0-.344-.004-.515-.013l.004-.083c.17.008.34.013.511.013.172 0 .342-.005.512-.013l.004.083c-.171.009-.343.013-.516.013z" clip-rule="evenodd" id="circle"/>
  <path fill="rgba(13, 83, 86, 0.2)" d="M23.309 17.026c-2.309.817-4.609 1.809-6.225 3.367-1.617 1.558-2.425 3.8-1.459 5.675 1.3 2.508 5.4 3.967 5.425 6.683.017 1.942-2.216 3.434-4.466 4.134-2.25.708-4.742.958-6.784 1.991-3.083 1.559-4.533 4.575-5.125 7.475-.616 3.009-.366 6.434 2.275 8.609 3.284 2.708 8.709 2.408 13.359 1.825 6.2-.775 12.375-1.675 18.55-2.584 13.525-1.975 27.058-3.966 40.591-5.95 1.45-.216 2.959-.45 4.142-1.158 2.342-1.417 2.542-4.342 1.175-6.433-1.367-2.092-3.875-3.509-6.375-4.734s-5.142-2.391-7.017-4.208c-1.875-1.817-2.808-4.5-1.383-6.567 1.2-1.75 3.783-2.683 4.908-4.466 1.484-2.35-.225-5.342-2.908-6.842s-36.467-1.117-48.683 3.183z" id="cloud"/>
  <path fill="rgba(13,83,86,0.2)" d="M86.684 86.083H3.201c-.492 0-.9-.408-.9-.9v-3.95c0-.492.408-.9.9-.9h83.483c.492 0 .9.408.9.9v3.95c0 .492-.408.9-.9.9z" id="ground"/>
  <path fill="#1d867c" d="M59.959 83.917h-36.55c-2.6 0-4.7-2.458-4.7-5.492 0-1.516.525-2.891 1.375-3.883s2.025-1.608 3.325-1.608h36.55v10.983z" id="bottom-book"/>
  <path fill="#F2F2F2" d="M35.117 73.667h34.05c.05 0 .092.042.092.092v9.325c0 .05-.042.091-.092.091h-34.05c-2.341 0-4.25-1.9-4.25-4.25v-1.008c0-2.35 1.9-4.25 4.25-4.25z" id="bottom-book-page"/>
  <path fill="#1e635d" d="M32.293 75.484c-.642.75-1.042 1.791-1.042 2.941 0 2.3 1.592 4.159 3.559 4.159h36.483v1.333h-36.55c-2.6 0-4.7-2.458-4.7-5.492 0-1.516.525-2.891 1.375-3.883s2.025-1.608 3.325-1.608h36.55v1.333H34.81c-.984 0-1.875.458-2.517 1.217z" id="bottom-book-cover"/>
  <path fill="rgba(13,83,86,0.2)" fill-rule="evenodd" d="M35.127 81.076c0-.045.037-.083.083-.083h32.775c.046 0 .084.038.084.084 0 .046-.038.083-.084.083H35.21c-.046 0-.083-.037-.083-.084zM35.127 79.409c0-.047.037-.084.083-.084h32.775c.046 0 .084.037.084.084 0 .045-.038.083-.084.083H35.21c-.046 0-.083-.038-.083-.084zM35.127 77.743c0-.046.037-.084.083-.084h32.775c.046 0 .084.037.084.084 0 .046-.038.083-.084.083H35.21c-.046 0-.083-.037-.083-.083zM35.127 76.076c0-.046.037-.084.083-.084h32.775c.046 0 .084.037.084.084 0 .046-.038.083-.084.083H35.21c-.046 0-.083-.038-.083-.084z" clip-rule="evenodd" id="bottom-book-all-page"/>
  <path fill="#ff3333" d="M31.934 72.925H66.8c2.475 0 4.484-1.925 4.484-4.3 0-1.192-.5-2.266-1.317-3.041-.808-.776-1.933-1.259-3.175-1.259H31.934v8.6z" id="center-backend-book"/>
  <path fill="#F2F2F2" d="M56.025 64.91H23.14c-.041 0-.075.032-.075.074v7.284c0 .041.034.075.075.075h32.884c2.025 0 3.666-1.642 3.666-3.667v-.1c0-2.025-1.641-3.667-3.666-3.667z" id="center-book-page"/>
  <path fill="#d40f0f" d="M58.333 66.325c.617.591.992 1.4.992 2.3 0 1.8-1.517 3.258-3.392 3.258H21.125v1.05h34.867c2.475 0 4.483-1.925 4.483-4.3 0-1.192-.5-2.267-1.317-3.042-.816-.775-1.933-1.258-3.175-1.258H21.125v1.05h34.808c.934-.017 1.784.35 2.4.942z" id="center-book-cover"/>
  <path fill="rgba(13,83,86,0.2)" fill-rule="evenodd" d="M24.191 71.468c0-.046.038-.083.084-.083H55.55c.046 0 .083.037.083.083 0 .046-.037.083-.083.083H24.275c-.046 0-.084-.037-.084-.083zM24.191 69.8c0-.046.038-.083.084-.083H55.55c.046 0 .083.037.083.083 0 .046-.037.084-.083.084H24.275c-.046 0-.084-.038-.084-.084zM24.191 68.134c0-.046.038-.083.084-.083H55.55c.046 0 .083.037.083.083 0 .046-.037.083-.083.083H24.275c-.046 0-.084-.037-.084-.083zM24.191 66.467c0-.046.038-.083.084-.083H55.55c.046 0 .083.037.083.083 0 .046-.037.084-.083.084H24.275c-.046 0-.084-.038-.084-.084z" clip-rule="evenodd" id="center-book-all-page"/>
  <path fill="#32b380" d="M59.959 64.325h-36.55c-2.6 0-4.7-2.458-4.7-5.492 0-1.516.525-2.891 1.375-3.883s2.025-1.608 3.325-1.608h36.55v10.983z"/>
  <path fill="#F2F2F2" d="M35.117 54.075h34.05c.05 0 .092.042.092.092v9.325c0 .05-.042.092-.092.092h-34.05c-2.341 0-4.25-1.9-4.25-4.25v-1.017c0-2.342 1.9-4.242 4.25-4.242z"/>
  <path fill="#108957" d="M32.293 55.892c-.642.75-1.042 1.791-1.042 2.941 0 2.3 1.592 4.159 3.559 4.159h36.483v1.333h-36.55c-2.6 0-4.7-2.458-4.7-5.492 0-1.516.525-2.891 1.375-3.883s2.025-1.608 3.325-1.608h36.55v1.333H34.81c-.984-.008-1.875.459-2.517 1.217z"/>
  <path fill="rgba(13,83,86,0.2)" fill-rule="evenodd" d="M35.127 61.485c0-.046.037-.084.083-.084h32.775c.046 0 .084.038.084.084 0 .046-.038.083-.084.083H35.21c-.046 0-.083-.037-.083-.083zM35.127 59.817c0-.046.037-.084.083-.084h32.775c.046 0 .084.038.084.084 0 .046-.038.083-.084.083H35.21c-.046 0-.083-.037-.083-.083zM35.127 58.15c0-.045.037-.083.083-.083h32.775c.046 0 .084.038.084.084 0 .046-.038.083-.084.083H35.21c-.046 0-.083-.037-.083-.083zM35.127 56.484c0-.046.037-.084.083-.084h32.775c.046 0 .084.038.084.084 0 .046-.038.083-.084.083H35.21c-.046 0-.083-.037-.083-.083z" clip-rule="evenodd"/>
  <path fill="#11b570" d="M55.542 74.517l-1.917-1.591-2 1.591v-6.45h3.917v6.45z" id="bookmark"/>
  <path fill="#B6E7FF" d="M78.757 82.166c1.825 0 2.592-1.458 2.9-3 .342-1.741.092-3.6.092-3.6h-5.975l-.025.2c-.117 1.092-.475 6.4 3.008 6.4z"/>
  <path fill="#85DDFF" d="M75.766 75.566c0 .134 1.341.234 2.991.234 1.65 0 2.992-.109 2.992-.234 0-.133-1.342-.233-2.992-.233s-2.991.108-2.991.233z"/>
  <path fill="#11b570" d="M70.666 59s3.15 4.791 5.042 7.716c1.891 2.925 2.383 3.534 2.608 4.475.225.942.425 4.433.425 4.433h.142s-.05-2.958-.217-3.958c-.167-.966.008-1.308.15-2.325.133-1.016.317-2.633-.708-3.758s-.75-2.225-1.117-2.975c-.358-.742-3.15-1.642-3.508-2.408-.367-.75-1.942-1.217-2.817-1.2z"/>
  <path fill="#108957" d="M70.666 58.999s.992 1.125 1.667 1.508c.675.384.991.042 1.508.967.517.925.542 1.325 1.008 1.8.475.475 1.034.492 1.084 1.533.041 1.034-.225 1.917-.225 1.917s-4.842-7.475-5.042-7.725z"/>
  <path fill="#11b570" d="M78.5 75.632h-.142s-.042-.958-.425-1.425c-.242-.3-1.292-.641-2.317-1.05-.566-.225-1.133-.466-1.558-.742-1.2-.758-2.342-3.216-2.442-3.65-.033-.15-.05-.241-.05-.308 0-.116.059-.133.159-.25.05-.058.191-.041.375.017.516.158.95.508 1.225.983.25.434.65.975 1.141 1.109.85.224.775.366 1.092 1.224.308.859 1.1 1 2.083 2.017.984 1.008.859 2.075.859 2.075z"/>
  <path fill="#108957" d="M75.616 73.158c-.566-.225-1.133-.467-1.558-.742-1.2-.758-2.342-3.216-2.442-3.65-.033-.15-.05-.241-.05-.308 0 .025.059.417.684.675.65.267.775.267.858.675.083.408.158.85.492.933.341.084.55-.3.816.325.267.617.4.834.642.917.25.083.433-.042.492.433.033.3.05.575.066.742z"/>
  <path fill="#11b570" d="M79.534 75.633h.166s.325-5.933.775-6.483c.292-.358 1.25-.992 2.467-1.475.675-.267 1.342-.558 1.842-.875 1.416-.9 2.775-3.808 2.891-4.325.042-.183.059-.292.059-.367 0-.141-.075-.158-.192-.3-.058-.066-.233-.041-.442.017-.608.183-1.125.608-1.45 1.158-.3.517-.766 1.15-1.35 1.309-1 .266-.916.433-1.291 1.45-.367 1.016-1.3 1.183-2.467 2.391-1.158 1.2-1.008 7.5-1.008 7.5z"/>
  <path fill="#108957" d="M82.95 67.675c.674-.267 1.34-.558 1.84-.875 1.417-.9 2.776-3.808 2.892-4.325.042-.183.059-.292.059-.367 0 .034-.067.492-.808.8-.767.317-.917.317-1.017.8-.1.484-.183 1-.584 1.1-.4.1-.65-.35-.966.384-.317.733-.467.983-.758 1.083-.292.1-.517-.05-.575.517-.05.35-.075.675-.084.883z"/>
  <path fill="#CCE9FF" d="M78.757 82.166c1.825 0 2.592-1.459 2.9-3-1.791-.675-4.041-1.767-5.908-3.4-.117 1.091-.475 6.4 3.008 6.4z"/>
  <path fill="#B6E7FF" d="M10.657 82.39c1.5 0 2.133-1.2 2.383-2.474.284-1.433.075-2.967.075-2.967H8.2s-.009.058-.017.159c-.1.908-.392 5.283 2.475 5.283z"/>
  <path fill="#85DDFF" d="M8.2 76.95c0 .108 1.1.191 2.458.191s2.458-.083 2.458-.192c0-.108-1.1-.191-2.458-.191-1.359 0-2.459.083-2.459.192z"/>
  <path fill="#11b570" d="M2.582 60.607s3.108 4.725 4.975 7.617c1.867 2.883 2.35 3.483 2.575 4.417.225.933.425 4.375.425 4.375h.242s.158-2.909-.134-3.859c-.291-.95-.175-1.333-.041-2.333.133-1 .308-2.6-.7-3.708-1.009-1.109-.742-2.2-1.1-2.934-.359-.733-3.109-1.616-3.467-2.375-.35-.758-1.908-1.225-2.775-1.2z"/>
  <path fill="#108957" d="M3.266 60.607s.975 1.109 1.641 1.484c.667.375.975.041 1.484.958.508.908.533 1.308 1 1.775.466.467 1.025.492 1.066 1.508.042 1.025-.225 1.884-.225 1.884s-4.766-7.367-4.966-7.609z"/>
  <path fill="#11b570" d="M11.59 76.95l.176-.05s-.308-1.225-.008-1.95c.191-.475 1.383-1.292 2.525-2.2.633-.5 1.25-1.017 1.683-1.525 1.225-1.408 1.733-4.933 1.692-5.525-.017-.209-.034-.325-.059-.409-.05-.15-.125-.15-.3-.258-.083-.05-.258.025-.466.159-.592.391-1.009 1-1.175 1.691-.15.642-.45 1.475-1.017 1.825-.983.6-.842.758-.908 1.959-.067 1.2-1.009 1.674-1.867 3.325-.842 1.658-.275 2.958-.275 2.958z"/>
  <path fill="#108957" d="M14.291 72.75c.633-.5 1.25-1.017 1.683-1.526 1.225-1.408 1.734-4.933 1.692-5.525-.017-.208-.033-.325-.058-.408.008.042.083.55-.609 1.108-.716.584-.875.634-.825 1.175.05.55.125 1.125-.275 1.359-.391.233-.808-.167-.908.716-.1.884-.183 1.2-.467 1.4-.275.2-.558.109-.45.734.084.391.159.741.217.966z"/>
  <path fill="#CCE9FF" d="M10.657 82.391c1.5 0 2.133-1.2 2.383-2.475-1.475-.558-3.325-1.45-4.867-2.8-.091.9-.383 5.275 2.484 5.275z"/>
  <path fill="#072C3D" d="M55.614 46.917h-16.02v3.679h16.02v-3.679z"/>
  <path fill="#108957" d="M56.779 46.324l-17.504-.594-1.103-15.189h19.936l-1.33 15.783z"/>
  <path fill="rgb(255 198 194)" d="M33.13 46.964c2.812.118 12.792 1.886 17.74 2.8 1.72.309 2.824.522 2.824.522s1.234.451 2.741.985c1.389.499 3.002 1.068 4.118 1.436.427.142.392.748-.036.854-1.056.25-3.43.214-5.15-.38-1.412.63-2.076.665-2.765.155-.225-.166-.486-.309-.76-.415-.498-.202-1.055-.333-1.59-.404-1.162-.154-2.195-.071-2.195-.071-4.01.771-13.171 3.37-18.63.154s-.083-5.79 3.703-5.636z"/>
  <path fill="#033e44" d="M33.127 46.965c2.812.118 12.792 1.886 17.74 2.8l-.628 2.765c-1.163-.154-2.196-.071-2.196-.071-4.01.771-13.172 3.37-18.63.154-5.459-3.216-.072-5.803 3.714-5.648z" id="left-leg"/>
  <path fill="#108957" d="M53.822 52.043c.557.118 1.364-.546 2.61-.771 1.389.498 3.002 1.068 4.118 1.435.427.143.392.748-.036.855-1.056.249-3.43.213-5.15-.38-1.412.629-2.076.664-2.765.154-.225-.166-.486-.308-.76-.415.25-.688 1.33-.795 1.983-.878zM59.885 30.6c-.154 4.605-2.314 10.146-3.524 11.95-.475.712-.795 1.104-.795 1.104h-4s.013-.024.036-.06c0-.012.012-.023.012-.023.202-.356 1.009-1.816 1.697-3.774.819-2.326 1.472-5.364.783-8.129H41.528c-1.365 5.459 2.527 11.986 2.527 11.986h-3.999S35.951 37.008 35.75 30.6c-.214-6.408 6.942-7.594 10.786-7.831H49.1l.415.035c3.916.404 10.573 1.614 10.371 7.796z" id="body"/>
  <path fill="#033e44" d="M49.977 10.665c1.77 0 3.204-1.435 3.204-3.204 0-1.77-1.434-3.204-3.204-3.204-1.77 0-3.204 1.434-3.204 3.204 0 1.77 1.435 3.204 3.204 3.204z" id="hire-female"/>
  <path fill="#033e44" d="M41.553 14.367c0-2.883 2.871-6.135 6.408-6.135 3.536 0 6.408 3.252 6.408 6.135 0 2.884-2.872 5.435-6.408 5.435-3.537 0-6.408-2.54-6.408-5.435z" id="hire-male"/>
  <path fill="rgb(235 182 179)" d="M45.967 20.561l.57 3.513L47.96 27.1l1.187-3.026.475-3.56-3.655.047z"/>
  <path fill="rgb(255 198 194)" d="M51.937 16.064c0 2.421-1.78 5.34-3.975 5.34-2.196 0-3.976-2.919-3.976-5.34 0-2.42 1.78-4.39 3.976-4.39 2.195 0 3.975 1.97 3.975 4.39z" id="face"/>
  <path fill="#033e44" d="M51.104 10.724h-6.29v4.153h6.29v-4.153z"/>
  <path fill="#32b380" fill-rule="evenodd" d="M54.875 31.027c.124-.04.258.028.3.152.123.378.147.943.03 1.729-.116.79-.38 1.827-.851 3.159-.044.124-.18.188-.303.145-.124-.044-.189-.18-.145-.304.466-1.313.719-2.318.83-3.07.112-.757.077-1.236-.013-1.511-.04-.125.027-.259.152-.3zM40.297 31.027c.125.041.192.175.152.3-.09.275-.125.754-.013 1.511.11.752.364 1.757.83 3.07.043.124-.021.26-.145.303-.123.044-.26-.02-.303-.144-.472-1.332-.735-2.368-.852-3.16-.116-.785-.092-1.35.032-1.728.04-.124.174-.192.299-.151z" clip-rule="evenodd"/>
  <path fill="#CCE9FF" d="M56.243 48.221H39.381c-.522 0-.938-.415-.938-.937l-.474-11.416c0-.522.415-.937.937-.937H56.73c.522 0 .937.415.937.937l-.474 11.416c0 .522-.428.937-.95.937z" id="device"/>
  <path fill="rgb(255 198 194)" d="M64.04 48.221c-2.111 1.852-10.584 7.429-14.797 10.182l-2.409 1.566s-1.21.522-2.67 1.175c-1.352.593-2.919 1.293-3.975 1.792-.403.19-.807-.273-.558-.641.594-.914 2.338-2.516 4-3.263.593-1.424 1.044-1.91 1.898-2.018.285-.035.57-.118.843-.225.498-.202.996-.498 1.424-.807.949-.688 1.649-1.46 1.649-1.46 2.373-3.322 7.239-11.51 13.41-12.934 6.17-1.424 4.034 4.141 1.186 6.633z"/>
  <path fill="#033e44" d="M64.04 48.222c-2.112 1.851-10.585 7.428-14.797 10.182l-1.448-2.433c.95-.688 1.65-1.46 1.65-1.46 2.373-3.322 7.238-11.51 13.408-12.934 6.171-1.424 4.035 4.153 1.187 6.645z" id="right-leg"/>
  <path fill="#11b570" d="M45.53 58.782c-.488.296-.618 1.34-1.366 2.361-1.352.593-2.919 1.294-3.975 1.792-.403.19-.807-.273-.558-.64.594-.915 2.338-2.517 4-3.264.593-1.424 1.044-1.91 1.898-2.017.285-.036.57-.12.843-.226.284.665-.416 1.483-.843 1.994z"/>
  <path fill="#32b380" d="M47.782 43.358c.983 0 1.78-.797 1.78-1.78s-.797-1.78-1.78-1.78-1.78.797-1.78 1.78.797 1.78 1.78 1.78z"/>
</svg>