<?xml version="1.0" encoding="utf-8"?><svg xmlns="http://www.w3.org/2000/svg" width="444.059" height="444.059"><path fill="rgba(13,83,86,0.4)" d="M357.76 312.234c-3.28-7.848-11.178-12.873-18.713-15.963l-50.938-23.455-24.473-20.639-39.323 39.111h-.03l16.971 113.445c.061.389-.04.787-.271 1.105l-17.744 24.283a1.49 1.49 0 0 1-1.212.617c-.48 0-.93-.229-1.212-.617l-17.742-24.283a1.49 1.49 0 0 1-.273-1.105l16.969-113.447h-.026l-39.321-39.109-24.473 20.639-50.941 23.455c-7.537 3.09-14.943 7.783-18.711 15.963 0 0-55.371 131.824-25.338 131.824h322.145c30.028.003-25.344-131.824-25.344-131.824zm3.538-180.745c.767-.083 1.457-.449 1.932-1.042.481-.592.698-1.355.613-2.114l-1.708-14.597-1.187-10.189a2.84 2.84 0 0 0-3.074-2.49l-2.203.003.042-34.202 1.153-.419 3.845-1.388c3.256-1.178 5.424-4.265 5.424-7.724a8.22 8.22 0 0 0-5.424-7.727L224.819.49a8.21 8.21 0 0 0-5.586 0L83.339 49.6a8.22 8.22 0 0 0-5.422 7.727c0 3.459 2.168 6.546 5.422 7.724l50.236 18.155c-3.546 11.195-5.16 24.013-5.015 38.284.884 81.402 48.138 129.944 91.862 129.944 43.213 0 90.979-48.542 91.859-129.944.146-13.832-1.379-26.291-4.697-37.238l36.528-13.2.077 30.021-2.207-.001c-1.533-.134-2.895.968-3.07 2.501l-2.857 24.788a2.84 2.84 0 0 0 .615 2.104c.479.591 1.176.97 1.932 1.033M220.428 231.666c-38.148 0-64.471-44.688-69.781-89.361-4.91-41.314 54.838-43.237 58.308-17.63 1.069 7.872-7.97 16.305-6.945 19.556 5.056 16.049 88.772-52.383 88.2-1.946-.403 35.611-33.435 89.381-69.782 89.381z"/></svg>