<?xml version="1.0" encoding="utf-8"?><svg xmlns="http://www.w3.org/2000/svg" width="1200" height="400" viewBox="70 400 1850 170"><g fill="#033e44"><path d="M418.445 317.975v.001c-.13-.001-.261.028-.381.087l-.711.346v.001L271.3 386.829c-42.253 17.922-74.559 28.372-106.886 38.826v.001a.87.87 0 0 0-.592.963l.008.038-.001.001c.009.042.02.083.035.123l-.002.001 92.51 343.942a.87.87 0 0 0 .445.549h0a.86.86 0 0 0 .141.057h.001c.038.012.076.02.115.027l-.003.001c4.71 1.097 8.983 1.989 12.409 2.488l.007.001.002.001.012.002c2.616.379 4.735.53 6.548.53 3.286 0 5.501-.498 7.654-.982l.023-.006.046-.013.023-.007.003-.001.015-.006.03-.012.015-.006 228.873-98.503v.001c.32-.139.526-.453.526-.801v-.001l-.004-.056-.014-.112-.011-.055-23.563-88.927v-.002.001-.001.001c-.008-.031-.017-.061-.028-.088a.87.87 0 0 0-.344-.424h0a.87.87 0 0 0-.411-.136l.001.001c-.022-.003-.039-.003-.059-.003a.87.87 0 0 0-.221.029h-.001c-.048.013-.096.03-.142.051h0l-155.32 71.493-9.367-35.536 155.46-73.342a.87.87 0 0 0 .499-.788v-.001l-.004-.057-.015-.113-.011-.056-24.616-91.323v.001a.71.71 0 0 0-.014-.049h0a.87.87 0 0 0-.36-.461h0a.87.87 0 0 0-.838-.053L299.03 526.928l-9.254-34.505 154.396-73.309.014-.01-.014.01a.87.87 0 0 0 .47-1.002v.001l-25.353-99.483h0a.87.87 0 0 0-.466-.57v.001l-.013-.007-.002-.001h-.001c-.115-.052-.238-.079-.362-.079v.001z"/><path d="M241.508 414.644h0c-22.686 6.416-46.614 13.238-68.554 13.238h0c-5.345 0-10.632-.401-15.813-1.324h0c-26.394-4.701-48.626-22.748-57.034-40.675h0c-8.792-18.747-1.951-36.292 3.366-50.601l11.867 6.724c-7.823 9.772-14.262 18.014-16.388 27.549h0c-2.164 9.703-.046 21.431 2.559 35.107l-.109-.48 76.005 286.272-.467-1.253.039.079-.001-.001c9.498 19.48 18.214 37.056 31.539 47.998h0c13.311 10.931 31.79 15.7 52.308 20.852a6.91 6.91 0 0 1 5.017 8.382 6.91 6.91 0 0 1-8.382 5.017h0c-19.756-4.961-41.551-10.305-57.71-23.575h0c-16.104-13.225-26.046-33.866-35.19-52.62l-.001-.001-.039-.079c-.195-.401-.352-.821-.467-1.253h0L88.05 407.727c-.042-.159-.079-.319-.109-.48h0c-2.448-12.849-5.382-27.647-2.472-40.699h0c2.948-13.221 11.71-23.963 19.087-33.177a6.91 6.91 0 0 1 11.867 6.724h0c-5.653 15.21-9.783 27.184-3.808 39.922h0c6.359 13.558 24.631 28.965 46.949 32.94h0c4.265.76 8.732 1.11 13.39 1.11h0c19.643 0 41.598-6.156 64.795-12.716a6.91 6.91 0 0 1 8.527 4.767 6.91 6.91 0 0 1-4.767 8.527z"/></g><path d="M299.15 202.524c-.029 0-.056.013-.073.036L153.613 387.568c-.022.028-.026.066-.011.098s.048.052.084.052l.056-.019 181.714-137.447c.02-.015.033-.037.036-.062s-.003-.049-.018-.069l-36.25-47.562c-.017-.023-.045-.036-.073-.037z" fill="#d10f0f"/><path d="M175.001 399.935h.001 0v-.001zm211.56-157.223c-.02 0-.039.006-.056.018L174.997 399.929c-.024.018-.037.045-.038.074l-.002.001-.002.002v.001c0 .035.02.067.051.083.013.007.028.01.042.01s.03-.004.044-.011l-.002.001 222.278-99.288.054-.102-10.772-57.911c-.006-.032-.028-.058-.058-.07-.011-.004-.023-.006-.034-.006z" fill="#f80000"/><path d="M195.487 195.875c-.044.003-.075.027-.088.062l-64.551 181.326c-.015.043.003.09.042.112.014.008.03.012.045.012.027 0 .054-.012.073-.035l97.45-120.924.021-.058v-.001l-.011-.045-32.898-60.401c-.016-.03-.048-.049-.082-.049z" fill="#b40c0c"/><path d="M886.429 478.614c2.031 3.178 2.6 7.234 1.189 11.041l-10.427 28.151c-2.389 6.45-9.554 9.741-16.004 7.352-2.643-.979-4.754-2.758-6.163-4.963-2.031-3.178-2.599-7.234-1.189-11.041l10.427-28.151c2.389-6.45 9.554-9.741 16.003-7.352 2.643.979 4.754 2.759 6.163 4.963zm54.028.838c-2.719-4.254-5.788-8.225-9.208-11.821-6.404-6.735-13.684-12.731-21.529-17.716-3.011-1.914-6.125-3.686-9.33-5.261-1.526-.75-4.617-2.099-4.663-2.119h0l-.018-.006-.001-.002h0l-1.725-.673c-.26-.1-.554-.022-.731.194h0c-.101.123-.15.275-.145.427v-.001c-.009.169-.043.339-.105.508l-8.307 22.762c-.334.915-1.346 1.386-2.261 1.052-.378-.138-.679-.391-.88-.705a1.76 1.76 0 0 1-.171-1.556l8.307-22.762v.001c.065-.178.154-.336.262-.477v.001c.144-.188.175-.439.08-.655v.001-.002h0c-.004-.009-.007-.016-.011-.024h0c-.011-.021-.022-.042-.035-.062-.019-.029-.04-.057-.063-.083v.001c-.075-.085-.171-.148-.28-.184h0a95.22 95.22 0 0 0-8.909-2.412c-8.922-1.971-18.158-2.803-27.289-2.54-29.128.842-60.758 17.609-76.638 42.066-8.372 12.893-13.88 27.271-18.818 41.888-.004.012-.007.024-.01.035l-.001-.001c-.044.158-.025.323.046.463.01.019.02.037.032.055a.65.65 0 0 0 .097.119h0a.55.55 0 0 0 .048.042h0a.64.64 0 0 0 .286.127h0c.178.037.356.093.531.167v.001l.09.037c29.187 12.41 58.295 24.783 88.173 35.649l-.001-.002a.64.64 0 0 0 .374.052c.229-.037.421-.194.502-.411l8.368-22.437a1.74 1.74 0 0 1 2.24-1.023 1.73 1.73 0 0 1 .858.692c.286.447.364 1.015.165 1.548l-8.35 22.386c-.065.173-.051.36.029.517v.001a.85.85 0 0 0 .032.054c.027.043.06.082.097.118v.001l.04.035v.001c.057.045.121.081.188.105h0c30.107 10.765 61.022 20.011 92.022 29.283.108.032.212.07.312.113l-.001-.003c.121.069.263.098.406.078h0c.232-.032.428-.188.512-.406h0l.815-2.141c4.596-12.197 8.387-24.611 9.75-37.528 2.384-22.591-2.716-48.062-15.182-67.569z" fill="#1e635d"/><path d="M942.42 592.601c-.05-.079-.119-.144-.199-.192-.041-.024-.086-.044-.132-.058h0l-72.782-22.631v.001c-.239-.081-.503-.002-.659.197v.001c-.053.067-.089.144-.109.224l-.001-.002-28.419 77.051c-4.297 11.65-17.224 17.611-28.874 13.314a22.38 22.38 0 0 1-11.156-8.971c-3.654-5.718-4.687-13.013-2.17-19.87l-.001-.002c.005-.01.01-.021.014-.032l28.327-76.803.012-.039v.001h.001c.042-.143.029-.297-.037-.431l-.001-.002h0l-.008-.015c-.008-.015-.016-.03-.024-.043a.56.56 0 0 0-.056-.074v.001c-.062-.072-.141-.127-.231-.162v.001c-23.313-9.024-46.225-18.765-69.088-28.486v.001l-.044-.02.001.001-.016-.007a3.09 3.09 0 0 1-.096-.043v.001c-.24-.114-.526-.054-.7.145a.6.6 0 0 0-.132.256l-.001-.001-1.316 4.016a.71.71 0 0 0-.007.025v-.001c-2.581 7.89-5.157 15.762-8.086 23.443v.001.001.001l-4.711 11.97v.001c-.004.008-.008.016-.011.025l-.056.141v.001l-4.785 12.164v.001c-7.046 18.471-12.838 37.515-10.509 56.691 1.978 16.294 7.807 32.641 16.74 46.618 1.999 3.128 4.154 6.137 6.456 9.001 10.059 12.513 24.357 21.937 39.266 27.809 16.276 6.41 34.853 8.651 52.143 5.957 18.192-2.834 35.93-11.655 49.889-23.633 18.082-15.516 26.352-39.411 34.317-62.401h0l.005-.014v.001l.002-.006.002-.006h0v-.001-.002l.068-.198v.001l5.523-15.493c2.35-6.236 4.924-12.442 7.506-18.667l.002-.005.001-.003.112-.271h0l4.083-9.936v.001c.072-.18.053-.382-.051-.544z" fill="#009688"/><path d="M889.359 420.928h0c18.469-43.024 38.35-90.056 68.111-114.067h0c16.373-13.209 35.515-19.454 54.834-19.454h0c17.07 0 34.107 4.869 49.466 13.835h0c32.832 19.167 57.487 56.626 70.49 110.932h0c12.929 53.996 14.638 125.928 14.159 182.216h0l-.397 29.123h0l-.331 23.818h0c-.261 30.654.644 53.122 5.788 69.126h0c7.434 23.126 23.81 32.607 39.607 32.766h-.001l.409.002h0c16.21 0 33.982-9.847 47.103-27.244h0c13.357-17.71 21.354-42.456 29.986-69.588 1.754-5.512 7.643-8.558 13.155-6.805s8.559 7.643 6.805 13.155h0c-8.325 26.168-17.283 54.716-33.223 75.851h0c-15.93 21.121-39.343 35.577-63.826 35.577h0a59.76 59.76 0 0 1-.618-.003h-.001c-25.229-.254-49.271-15.985-59.337-47.301h0c-6.339-19.721-7.049-45.557-6.792-75.714h0l.333-23.983h0l.395-28.958h0c.479-56.317-1.315-125.924-13.584-177.16h0c-12.194-50.926-34.432-82.396-60.68-97.72h0c-12.407-7.243-25.829-10.978-38.906-10.978h0c-14.684 0-29.149 4.699-41.682 14.81h0c-24.774 19.987-42.688 61.002-62.016 106.028-2.281 5.315-8.44 7.774-13.755 5.493s-7.774-8.44-5.493-13.755z" fill="#023e44"/><path d="M611.596 538.074q19.593 0 32.078 13.155 12.636 13.691 13.1 31.211.223 8.41-2.708 16.903-2.94 8.143-9.762 15.337-10.233 10.791-22.801 12.877-12.18 1.72-25.102 1.72-.049 0-.099 0-2.102.056-3.854.102-1.752.046-3.504.093l-2.406-90.754 23.477-.622q.796-.021 1.581-.021zm.076-74.663q-1.809 0-3.636.048-24.528.65-49.056 1.301-24.178.641-48.706 1.291l6.354 239.674 97.761-2.592q49.406-1.31 83.859-37.639 34.111-35.969 32.801-85.375-1.31-49.406-37.639-83.859-34.639-32.85-81.74-32.85zm954.191 68.341q11.407 0 19.793 8.254 8.476 7.994 8.571 19.911.092 11.566-8.253 20.045-8.345 8.479-19.911 8.571l-43.811.348-.452-56.779 43.811-.348q.126-.001.252-.001zm-299.516 52.854l11.372 19.538-22.782.181h0l11.41-19.719zm608.854-129.623l-148.606 1.182 1.907 239.733 148.606-1.182-.591-74.303-73.953.588-.064-8.061 102.342-.814-.594-74.654-102.342.814-.064-8.061 73.953-.588-.594-74.654zm-610.041-19.684l-31.799 56.334L1114.8 700.778l86.22-.686 11.752-20.774 108.3-.861 12.431 20.581 85.869-.683-66.088-112.338q-3.561-6.982-6.423-14.32-2.862-7.338-4.673-14.684-1.814-7.697-2.924-15.049-1.11-7.352-1.166-14.362-.156-19.627 8.842-34.07 8.648-14.44 29.649-18.112 1.75-.364 3.499-.729 1.752-.014 3.505-.028.157-.001.313-.001 4.388 0 8.458.983 4.214 1.018 7.741 3.794 4.231 3.121 7.079 8.706 2.498 5.588 2.899 11.894.003.351.008 1.051.003.351.006.701.058 7.36-3.752 12.999-3.46 5.636-11.866 6.403-.521.052-1.011.052-3.129 0-4.964-2.107-2.12-2.086-2.492-4.887-.014-1.752.67-3.861.337-1.755 1.727-3.168 1.738-1.766 2.423-3.875.687-1.758.673-3.51-.033-4.206-3.213-7.335-3.142-2.749-6.948-2.749-.042 0-.084 0-2.453.02-4.899 1.09-2.097.718-3.83 3.185-2.776 3.527-4.498 7.396-1.725 3.519-2.395 7.38.008 1.051-.331 2.456.008 1.051.019 2.453.089 11.216 8.57 19.911 7.723 8.262 20.44 8.262.671 0 1.357-.023 17.869-.843 26.881-13.533 8.665-12.337 8.545-27.408-.006-.701-.011-1.402-.003-.35-.008-1.051-.434-10.512-5.068-20.289-4.632-9.427-13.093-15.669-7.755-5.546-15.839-8.286-7.52-2.327-15.685-2.327-.228 0-.457.002-3.855.031-8.055.765-4.2.734-8.398 1.819-24.134 6.501-36.617 23.425-12.136 16.57-15.468 38.328l-14.571-25.121-32.691-55.821zm300.803 21.796q-.471 0-.945.004l-118.114.939 1.909 240.083 74.303-.591-.273-34.348.701-.006q14.832 13.902 32.434 23.577 17.6 9.324 36.565 14.08l.348-.353q10.186 2.723 20.712 4.041 9.898 1.24 19.786 1.24.627 0 1.254-.005 4.556-.036 9.11-.423 4.556-.036 9.107-.773 15.758-1.878 31.488-7.261 15.382-5.029 30.036-13.558l-38.012-63.841q-8.723 4.976-18.164 7.856-9.09 2.876-18.548 3.653 13.557-14.128 21.471-32.768 7.566-18.287 7.398-39.316-.34-42.759-30.721-72.661-30.043-29.569-71.846-29.569zm-489.394-4.52q-.447 0-.896.004-52.923.421-90.475 38.575-37.204 37.8-36.783 90.724.421 52.923 38.575 90.475 37.377 36.788 89.541 36.788.59 0 1.182-.005 7.711-.061 15.413-1.174 7.352-1.11 14.701-2.57l-18.099-72.061q-1.399.362-3.149.726-1.399.362-2.801.373-1.75.364-3.152.376-1.402.011-3.154.025-.688.017-1.372.017-20.539 0-36.603-15.137-16.596-15.29-16.78-38.422-.181-22.782 16.169-38.334 16.35-15.552 37.73-15.722.18-.001.361-.001 2.646 0 5.6.305 3.157.325 6.317 1.001l16.95-72.34q-7.374-1.694-15.093-2.684-6.94-.935-14.183-.935z" fill="#1e635d"/></svg>