<svg xmlns="http://www.w3.org/2000/svg" width="900" height="330" viewBox="65 488 600 235"><path d="M575.119 678.308l-1.133 5.292 20.132.037 1.133-5.291-20.132-.037zm-68.753 5.166q.004 0 .007 0l7.579.014q1.404.003 1.402.925 0 .12-.041.281 0 .16-.041.361l-2.913 13.509q-.162.722-.563 1.042-.399.318-1.354.318-.005 0-.011 0l-7.579-.014q-1.163-.002-1.161-.844 0-.12.081-.521l2.913-13.509q.202-.922.564-1.242.32-.319 1.116-.319zm23.569 9.949l8.582.016q.682.001 1.002.162.32.161.32.682 0 .12-.041.281 0 .16-.041.361l-.769 3.568q-.202.962-.604 1.282-.359.278-1.273.278-.006 0-.011 0l-8.582-.016 1.416-6.614zm-81.701-15.351l-1.133 5.291 14.477.027q.561.001.842.162.24.121.24.562 0 .16-.081.561l-1.173 5.332q-.202.922-.524 1.242-.28.319-1.037.319-.003 0-.007 0l-8.381-.016 1.335-6.173-6.096-.011-4.248 19.843 6.096.011 1.861-8.739 10.908.02q.011 0 .022 0 2.59 0 3.83-1.156 1.245-1.161 1.771-3.566l1.901-8.939q.081-.521.162-.962.041-.401.042-.802.003-1.524-.878-2.247-.881-.724-2.926-.727l-17.004-.032zm25.425.047l-1.133 5.291 14.397.027q.682.001.962.162.28.161.28.642 0 .12-.041.281 0 .16-.041.361l-.971 4.409q-.202.842-.523 1.122-.28.279-1.153.279-.005 0-.01 0l-8.341-.015 1.133-5.251-6.096-.011-4.248 19.843 6.096.011 2.144-10.102 8.783.016q1.123.002 1.122.644 0 .12-.041.281 0 .12-.041.321l-1.861 8.859 6.096.011 1.983-9.42q.081-.24.081-.481 0-.2.001-.401.002-1.283-.879-1.806-.881-.483-2.165-.566 1.404-.158 2.569-1.038 1.165-.84 1.61-2.924l1.254-5.893q.081-.441.162-.842.041-.401.041-.762.003-1.524-.918-2.288-.921-.724-3.006-.728l-17.244-.032zm31.018.058q-2.59 0-3.83 1.156-1.245 1.161-1.771 3.566l-3.762 17.678q-.243 1.042-.244 1.804-.003 1.484.918 2.207.881.723 2.926.727l13.515.025q.011 0 .021 0 2.551 0 3.831-1.156 1.245-1.161 1.771-3.566l3.762-17.678q.081-.481.162-.922.041-.441.042-.842.003-1.524-.878-2.247-.881-.723-2.926-.727l-13.515-.025q-.011 0-.022 0zm22.399.042l-1.093 5.251 14.557.027q.682.001.962.202.28.161.279.642-.001.321-.122.722l-.688 3.287q-.162.681-.523.961-.32.279-1.193.279-.005 0-.01 0l-8.502-.016.931-4.369-6.096-.011-4.288 20.164 17.685.033q.01 0 .021 0 2.551 0 3.831-1.156 1.245-1.121 1.731-3.446l1.375-6.454q.041-.2.081-.401 0-.201.001-.401.002-1.083-.759-1.565-.721-.483-1.884-.605 1.404-.158 2.328-.958.924-.76 1.288-2.444l1.092-5.091q.081-.441.162-.842.041-.401.042-.762.003-1.524-.918-2.288-.921-.724-3.006-.727l-17.284-.032zm26.548.049l-5.785 27.139 18.207.034 1.173-5.492-12.111-.023 4.612-21.647-6.096-.011zm19.958 7.336l-4.248 19.843 20.132.037 1.133-5.412-13.835-.026 1.214-5.692 9.986.019.93-4.329-9.986-.019.971-4.41-6.296-.012zm26.04-7.25l-5.785 27.139 5.053.009 3.52-16.476 3.218 16.488 4.772.009 10.096-16.463-3.52 16.476 5.013.009 5.785-27.139-6.336-.012-11.745 18.867-3.494-18.895-6.577-.012zm37.073.069q-2.63 0-3.87 1.156-1.245 1.161-1.771 3.566l-1.497 7.015q-.122.682-.122 1.163-.002 1.283.758 2.006.721.683 2.365.686l10.707.02q1.043.002 1.041.724-.001.281-.041.441l-.809 3.768q-.162.762-.523 1.042-.32.279-1.036.279-.003 0-.007 0l-14.477-.027-1.133 5.292 17.204.032q.011 0 .022 0 2.59 0 3.83-1.156 1.245-1.161 1.771-3.566l1.578-7.416q.121-.601.122-1.123.002-1.283-.758-2.007-.721-.723-2.405-.726l-10.868-.02q-.882-.002-.881-.603 0-.12.041-.24 0-.12.041-.281l.769-3.568q.162-.722.443-1.002.28-.279.917-.279.003 0 .006 0l14.397.027 1.092-5.171-16.883-.031q-.011 0-.022 0z" fill="#480f1a"/><path d="M314.074 678.587l-20.102.02-1.116 5.287 20.102-.02 1.116-5.287zm53.907 5.231q1.397 0 1.398.92 0 .12-.04.28 0 .16-.04.36l-2.87 13.497q-.159.721-.56 1.042-.4.321-1.361.322l-7.568.008q-.002 0-.003 0-1.158 0-1.159-.84 0-.12.08-.521l2.87-13.497q.199-.921.559-1.242.32-.321 1.121-.321l7.568-.008q.002 0 .004 0zm-133.944.134q1.397 0 1.398.92 0 .12-.04.28 0 .16-.04.36l-2.87 13.497q-.159.721-.56 1.042-.4.321-1.361.322l-7.568.008q-.002 0-.003 0-1.158 0-1.159-.84 0-.12.08-.521l2.87-13.497q.199-.921.559-1.242.32-.321 1.121-.321l7.568-.008q.002 0 .004 0zm191.248-5.478q-.006 0-.012 0l-17.218.017-1.116 5.287 14.375-.014q.003 0 .006 0 .676 0 .956.159.28.16.281.64 0 .12-.04.28 0 .16-.04.36l-.957 4.406q-.199.841-.519 1.122-.28.281-1.161.281l-8.329.008 1.116-5.247-6.087.006-4.185 19.826 6.087-.006 2.112-10.093 8.769-.009q.002 0 .004 0 1.117 0 1.118.64 0 .12-.04.28 0 .12-.04.32l-1.833 8.851 6.087-.006 1.953-9.412q.08-.24.08-.481 0-.2 0-.4-.001-1.281-.883-1.801-.881-.48-2.163-.558 1.401-.162 2.562-1.044 1.16-.842 1.599-2.925l1.235-5.888q.08-.441.159-.841.04-.4.039-.761-.002-1.522-.923-2.282-.919-.718-2.992-.718zm-21.595.022l-5.846.006-4.264 20.266q-.199.921-.559 1.202-.36.241-1.161.241l-8.009.008q-.002 0-.005 0-.637 0-.916-.159-.28-.12-.281-.56 0-.24.119-.721l4.264-20.266-6.087.006-4.703 22.389q-.12.481-.159.921-.04.44-.039.841.002 1.522.883 2.242.879.718 2.952.718.006 0 .012 0l13.494-.014q2.563-.003 3.843-1.165 1.24-1.162 1.758-3.566l4.703-22.389zm-31.462.032q-.006 0-.012 0l-13.495.014q-2.603.003-3.843 1.165-1.24 1.162-1.758 3.566l-3.706 17.663q-.239 1.041-.238 1.802.001 1.482.923 2.201.879.718 2.912.718.006 0 .012 0l13.495-.014q2.563-.003 3.843-1.165 1.24-1.162 1.758-3.566l3.706-17.663q.08-.481.159-.921.04-.441.039-.841-.002-1.522-.883-2.242-.879-.718-2.912-.718zm-20.714.021l-6.087.006-7.838 10.699-3.334-10.688-6.367.006 5.422 15.932-2.351 11.174 6.087-.006 2.351-11.174 12.117-15.949zm-52.769 7.341l-6.287.006-4.185 19.825 20.102-.02 1.116-5.407-13.815.014 1.196-5.687 9.971-.01.917-4.326-9.971.01.957-4.406zm-7.495-7.28l-6.047.006-10.271 19.792-1.541-19.78-6.287.006 2.67 27.106 6.847-.007 14.629-27.124zm-38.121.038l-6.087.006-5.699 27.115 18.18-.018 1.156-5.487-12.093.012 4.543-21.628zm-14.844.015q-.006 0-.012 0l-13.494.014q-2.603.003-3.843 1.165-1.24 1.162-1.758 3.566l-3.706 17.663q-.239 1.041-.238 1.802.001 1.482.923 2.201.879.718 2.912.718.006 0 .012 0l13.494-.014q2.563-.003 3.843-1.165 1.24-1.162 1.758-3.566l3.706-17.663q.08-.481.159-.921.04-.441.039-.841-.002-1.522-.883-2.242-.879-.718-2.912-.718zm-22.436.022l-16.858.017q-2.643.003-3.883 1.165-1.24 1.162-1.758 3.566l-1.475 7.009q-.119.681-.119 1.161.001 1.281.763 2.001.72.678 2.355.678.004 0 .008 0l10.691-.011q.002 0 .003 0 1.038 0 1.039.72 0 .28-.04.44l-.797 3.765q-.159.761-.52 1.042-.32.281-1.041.281l-14.456.015-1.116 5.287 17.178-.017q2.603-.003 3.843-1.165 1.24-1.162 1.758-3.566l1.554-7.41q.12-.601.119-1.121-.001-1.281-.763-2.001-.72-.718-2.395-.718-.004 0-.008 0l-10.852.011q-.001 0-.003 0-.878 0-.879-.6 0-.12.04-.24 0-.12.04-.28l.757-3.565q.159-.721.44-1.002.28-.281.921-.281l14.375-.014 1.076-5.167z" fill="#023e44"/><path d="M580.946 640.765v.001zm71.113-138.175v.006l-21.327 2.311c20.944 38.106 10.308 56.842 10.308 56.842-5.158 7.321-16.396 16.03-26.459 21.245-2.506 1.299-6.107-.18-6.107-.18-4.758-3.418-11.139-6.124-17.4-6.399v.001l-.004-.001v.001a30.28 30.28 0 0 0-1.38-.031c-16.771 0-30.721 13.439-31.476 30.612-.775 17.644 12.67 32.582 30.051 33.345v.001l.004-.001v.001c.46.019.924.029 1.38.029 7.158 0 13.801-2.447 19.124-6.587l.067-.023.004.001c.043-.001.083.025.1.065s-.031.075-.021.118c1.105 4.659-5.615 9.175-12.843 10.832-4.536 1.04-10.241.257-11.319-.153 3.359 12.031 6.741 21.662 6.741 21.662 4.315 2.033 6.886 1.122 6.886 1.122 9.301-3.295 13.879-9.208 18.582-15.3.157-.204.398-.317.645-.317a.81.81 0 0 1 .278.049c.333.121.55.443.536.797l-.66 17.101 33.469.532.82-167.679zm.111-.648v.006c.029-.006.057.005.077.026s.032.048.032.077l-.002.32.301-.001.004.001c.039-.002.062.006.082.021.027.021.042.052.042.086v.006l-.821 167.902c-.001.026-.011.051-.028.069l.004.001c-.02.024-.05.039-.084.039l-.001.001-.011-.001-.31-.005-.002.322c0 .06-.049.108-.109.108v.001l-.023-.002h-.01l-33.695-.537c-.051-.012-.086-.058-.084-.11l.012-.32-.318-.004c-.059-.001-.107-.049-.107-.109v-.001-.002-.005-.002-.004h0l.634-16.336a.11.11 0 0 1 .016-.104l.228-.295-.154-.056c-.043-.015-.072-.056-.072-.102v-.001-.004l.012-.314c.003-.071-.04-.136-.104-.161h.001l-.007-.003a.16.16 0 0 0-.057-.01c-.051 0-.1.023-.133.065l-.001.001h0l-.016.02v.002l-.174.226c-.021.027-.053.043-.086.043-.012 0-.023-.002-.035-.006l-.002-.001-.155-.057-.014.373c-.001.032-.017.062-.043.082v.001c-4.533 5.858-9.209 11.592-18.351 14.83l.003.001c-2.522.892-5.385 1.596-8.457 2.056l.005.001c-.008.001-.016.001-.024.002-.019.002-.04.004-.063.004a.54.54 0 0 1-.342-.122l.001.001-.011-.009a.54.54 0 0 1-.155-.225h-.005c-2.462.342-5.061.527-7.73.527-6.378 0-13.142-1.06-19.427-3.549-12.387-4.907-22.987-15.4-29.47-28.652v.001c-6.484-13.252-8.837-29.234-5.812-44.052s11.429-28.477 23.146-37.17c9.814-7.281 21.964-11.088 32.56-11.088 2.057 0 4.054.144 5.961.432 11.723 1.772 20.229 9.034 28.88 16.438v.001a.6.6 0 0 0 .64.087v.001a.6.6 0 0 0 .345-.548l-.541-59.442c0-.06.048-.108.108-.109l8.954-.059a.54.54 0 0 1 .478-.433h.005.009.013l.002-.001h.015.006l24.471-.168z" fill="#1e635d"/><path d="M620.845 606.84h0c.791 18.005-12.614 33.266-30 34.03h0c-17.386.764-32.077-13.263-32.868-31.268h0c-.791-18.005 12.614-33.266 30-34.03h0c17.386-.764 32.077 13.263 32.868 31.268h0m-1.41.062h0c-.759-17.279-14.84-30.647-31.396-29.92h0c-16.556.727-29.411 15.279-28.652 32.558h0c.759 17.279 14.84 30.647 31.396 29.92h0c16.556-.727 29.411-15.279 28.652-32.558z"/><path d="M652.168 502.051a.43.43 0 0 1 .303.125h0 0a.43.43 0 0 1 .126.306l-.821 167.899a.43.43 0 0 1-.43.428l-.001.001c-.008-.001-.017-.001-.025-.002h-.002-.003l-33.666-.533a.43.43 0 0 1-.423-.431v-.005-.008-.004l.664-17.212c.005-.119-.067-.227-.178-.269l.004.001.043.007-.052-.009c-.032-.011-.062-.017-.094-.017-.085 0-.165.038-.219.107h0l-.016.021v.001c-4.698 6.085-9.359 12.107-18.811 15.456v.001c-2.513.889-5.37 1.592-8.437 2.051v.001h-.004a.48.48 0 0 1-.059.004.43.43 0 0 1-.28-.104h0a.43.43 0 0 1-.125-.184h0c-3.408-9.7-6.779-19.333-9.084-28.451l.005.001-.015-.04a.43.43 0 0 1 .328-.525v.001l.005-.002.063-.004.118.009.061.014c2.787 1.063 5.752 1.636 8.828 1.636a24.43 24.43 0 0 0 .815-.013c15.865-.522 28.149-16.179 27.534-34.874-.328-9.975-4.274-18.867-10.3-24.898a.43.43 0 0 1-.126-.304v-.001a.43.43 0 0 1 .198-.362l-.001.001c0-.001.034-.021.055-.033v.001l1.648-.953.018-.008-.017.008.14-.081v.001c9.823-5.67 19.504-11.287 24.645-18.585 10.64-15.103 1.788-37.283-7.245-59.341l.004.001c-.053-.082-.079-.182-.067-.285v.001a.43.43 0 0 1 .387-.379l.004.001.021-.001 24.48-.169z" fill="#1d867c"/><path d="M618.212 502.005h0l.547 60.148c.003.277-.157.529-.408.646s-.547.076-.757-.104h0c-8.655-7.407-17.138-14.646-28.826-16.413h0c-1.901-.287-3.893-.431-5.945-.431h0c-10.573 0-22.699 3.798-32.495 11.067h0c-11.694 8.676-20.084 22.31-23.104 37.104h0c-3.02 14.792-.67 30.75 5.803 43.981h0c6.474 13.231 17.055 23.703 29.413 28.598h0c6.271 2.484 13.021 3.542 19.387 3.542h0c6.183 0 11.98-.997 16.599-2.634h0c9.333-3.307 13.929-9.244 18.631-15.336.188-.243.511-.337.799-.232s.476.384.464.691h0l-.692 17.933-.694-.733 35.125.557-.717.702.828-169.325.71.709-35.371.241.701-.712m-1.411.013c-.002-.187.071-.368.203-.501s.311-.209.498-.211h0l35.371-.241c.189-.001.37.073.503.206s.208.314.207.503h0l-.828 169.325c-.001.188-.077.369-.212.501s-.317.204-.505.201h0l-35.125-.557c-.19-.003-.371-.082-.501-.22s-.2-.323-.193-.512h0l.692-17.933 1.264.458c-4.705 6.095-9.518 12.346-19.277 15.804h0c-4.787 1.696-10.745 2.715-17.07 2.715h0c-6.516 0-13.446-1.081-19.907-3.641h0c-12.734-5.044-23.557-15.794-30.161-29.29h0c-6.603-13.496-9.004-29.77-5.918-44.884h0c3.085-15.112 11.654-29.059 23.646-37.955h0c10.036-7.446 22.455-11.344 33.336-11.344h0c2.117 0 4.179.148 6.156.447h0c12.148 1.837 20.926 9.371 29.532 16.736l-1.165.543-.547-60.148z"/><path d="M461.272 640.611v.001zm-71.113-138.174v.006l20.152-.145c-9.017 22.019-17.319 48.537-6.643 63.691 5.158 7.321 14.597 12.686 24.413 18.352 4.598.662 6.295-2.273 6.295-2.273l-.001.001c4.759-3.418 10.508-5.532 16.77-5.807v.001l.004-.001v.001c.46-.021.924-.031 1.38-.031 16.771 0 30.721 13.439 31.476 30.612.775 17.644-12.67 32.582-30.051 33.345v.001h-.004v.001c-.46.019-.924.029-1.38.029-7.158 0-13.801-2.447-19.124-6.587-.672.092-4.833-.233-4.833-.233 8.446 12.937 26.106 13.066 29.645 10.377l-7.519 22.942c-3.17-.452-4.337 1.448-6.909.537-9.301-3.295-13.879-9.208-18.582-15.3-.157-.204-.398-.317-.645-.317a.81.81 0 0 0-.278.049c-.333.121-.55.443-.536.797l.66 17.101-33.469.532-.82-167.679zm-.111-.648v.006c-.029-.006-.057.005-.077.026s-.032.048-.032.077l.002.32-.301-.001-.004.001c-.039-.002-.062.006-.082.021-.027.021-.042.052-.042.086v.006l.821 167.902c.001.026.011.05.028.069l-.004.001c.02.024.05.039.085.039l.001.001.011-.001.31-.005.002.322c0 .06.049.108.109.108v.001l.024-.002h.01l33.696-.537c.051-.012.086-.058.084-.11l-.012-.32.318-.004c.059-.001.107-.049.107-.109v-.001-.009-.004h0l-.63-16.337-.004.001a.11.11 0 0 0-.016-.104l-.228-.295.154-.055c.043-.016.072-.056.072-.102v-.001-.004l-.012-.314c-.003-.071.04-.136.105-.161h-.001l.007-.003a.16.16 0 0 1 .057-.01c.051 0 .1.023.133.065l.001.001v-.001l.016.02v.002l.174.226c.021.027.053.043.086.043.012 0 .023-.002.035-.006l.002-.001.155-.057.014.373c.001.032.017.062.042.082v.001c4.533 5.858 9.209 11.592 18.351 14.831l-.003.001c2.522.892 5.385 1.596 8.457 2.056l-.005.001c.008.001.016.001.024.002.019.002.04.004.063.004a.54.54 0 0 0 .342-.122l-.001.001.011-.009a.54.54 0 0 0 .155-.225l.005.001c2.462.342 5.061.527 7.73.527 6.378 0 13.142-1.06 19.427-3.549 12.387-4.907 22.987-15.4 29.471-28.652v.001c6.484-13.252 8.837-29.234 5.812-44.052s-11.429-28.477-23.146-37.17c-9.814-7.281-21.964-11.088-32.56-11.088-2.057 0-4.054.143-5.961.432-11.723 1.772-20.229 9.034-28.88 16.438v.001a.6.6 0 0 1-.64.087h0a.6.6 0 0 1-.345-.548l.541-59.442c0-.06-.048-.108-.108-.109l-8.954-.059a.54.54 0 0 0-.478-.433h-.005-.009l-.013-.001h-.002-.015-.006l-24.471-.168z" fill="#1e635d"/><path d="M425.417 501.865h0l-.547 60.148-1.165-.543c8.606-7.366 17.384-14.9 29.532-16.736h0c1.978-.299 4.037-.446 6.156-.446h0c10.881 0 23.301 3.899 33.337 11.344h0c11.992 8.897 20.561 22.843 23.646 37.955h0c3.085 15.114.685 31.388-5.918 44.884h0c-6.603 13.496-17.427 24.246-30.161 29.29h0c-6.461 2.559-13.391 3.641-19.907 3.641h0c-6.325 0-12.284-1.019-17.07-2.715h0c-9.759-3.458-14.572-9.709-19.277-15.804l1.264-.458.692 17.933c.007.19-.062.375-.193.512a.71.71 0 0 1-.501.22h0l-35.125.557c-.188.003-.37-.07-.505-.202s-.211-.312-.212-.501h0l-.828-169.325c-.001-.189.074-.37.207-.503s.315-.207.503-.206h0l35.371.241c.187.001.367.077.498.211a.71.71 0 0 1 .203.501h0m-1.411-.013l.701.712-35.371-.241.711-.709.828 169.325-.717-.702 35.125-.557-.694.733-.692-17.933c-.012-.307.176-.586.465-.691s.612-.011.799.232h0c4.703 6.092 9.298 12.029 18.631 15.336h0c4.618 1.636 10.416 2.634 16.599 2.634h0c6.367 0 13.117-1.058 19.387-3.542h0c12.358-4.896 22.939-15.367 29.413-28.598h0c6.474-13.231 8.823-29.188 5.803-43.981h0c-3.02-14.795-11.41-28.428-23.104-37.104h0c-9.796-7.268-21.923-11.066-32.496-11.066h0c-2.053 0-4.042.143-5.945.431h0c-11.687 1.767-20.171 9.006-28.826 16.413-.21.18-.506.22-.757.104s-.41-.369-.408-.646h0l.547-60.148zm-3.023 107.761h0c-.778-17.702 12.712-32.692 30.155-33.458h0c17.443-.766 32.195 12.984 32.973 30.686h0c.778 17.702-12.712 32.692-30.155 33.459h0c-17.443.766-32.195-12.984-32.973-30.686h0m1.41-.062h0c.744 16.945 14.858 30.069 31.501 29.338h0c16.643-.731 29.551-15.042 28.807-31.987h0c-.744-16.945-14.858-30.069-31.501-29.338h0c-16.643.731-29.551 15.041-28.807 31.987z"/><path d="M390.049 501.898v.006a.4.4 0 0 0-.303.119h0 0a.43.43 0 0 0-.126.306l.821 167.899a.43.43 0 0 0 .429.427v.001c.008-.001.017-.001.025-.002h.002.003l33.666-.533a.43.43 0 0 0 .423-.43v-.001-.004-.008-.004l-.664-17.212c-.005-.119.067-.227.178-.269l-.004.001-.044.007.052-.009c.032-.011.062-.017.094-.017.084 0 .165.038.219.107v.001l.016.021v.001c4.698 6.085 9.359 12.107 18.811 15.456v.001c2.513.89 5.37 1.592 8.438 2.051v.001h.004c.016.002.039.004.059.004a.43.43 0 0 0 .28-.104h0a.43.43 0 0 0 .125-.184v.001c3.407-9.7 6.779-19.333 9.084-28.451l-.005.001.015-.041a.43.43 0 0 0-.328-.525v.001l-.005-.002-.063-.004-.118.009-.061.014c-2.787 1.063-5.752 1.636-8.828 1.636-.276 0-.537-.004-.815-.013-15.865-.522-28.149-16.179-27.534-34.874.328-9.975 4.274-18.867 10.3-24.898a.43.43 0 0 0 .126-.304v-.001a.43.43 0 0 0-.198-.362l.001.001a1.06 1.06 0 0 0-.055-.033v.001l-1.536-.888v.001l-.112-.066-.018-.008.017.008-.14-.081v.001c-9.823-5.67-19.504-11.287-24.645-18.585-10.64-15.103-1.788-37.283 7.245-59.341l.076-.229c.022-.088-24.905-.602-24.905-.602l-.003.001v-.001.001-.001.001-.001z" fill="#1d867c"/><path d="M337.212 548.746h0l-85.965 121.778-.565-1.107 40.936.506-.585.301 84.967-121.956.571 1.104-39.938-.328.58-.297m-1.148-.81a.7.7 0 0 1 .58-.297h0l39.938.328a.7.7 0 0 1 .571 1.104h0l-84.966 121.956a.7.7 0 0 1-.585.301h0l-40.936-.506a.7.7 0 0 1-.565-1.107h0l85.965-121.778z"/><path d="M365.78 549.008l-.037.004-.054.013-.035.013c-9.119 4.725-18.281 9.484-26.659 22.295-3.916 5.988-7.658 13.734-11.457 21.595l-.004.008v.001l-.002.004c-4.328 8.957-8.731 18.066-13.558 24.956-4.457 6.362-9.282 10.839-14.157 14.615-2.547 1.973-5.12 3.763-7.651 5.523l-.004.003-.002.002h0c-2.466 1.715-4.904 3.411-7.269 5.242-9.399 7.28-17.6 16.679-25.774 26.062-.071.081-.087.196-.043.294s.142.161.25.161l-.001.001 31.922.395a.28.28 0 0 0 .193-.08c.013-.012.024-.026.033-.04l-.001.001 84.034-120.668.007-.047v-.001c0-.15-.121-.273-.272-.275v.001l-9.454-.079z" fill="#f80000"/><path d="M292.428 638.478l.002.009-.003-.008-.003.001zm.022-.016l.009.027h0l-.009-.028zm.014.05h0l-.006.002.006-.002zm44.539-89.789l-.014.002-.073.017-.013.005-.088.045-.012.008-.057.049-.009.01-84.987 120.396a.32.32 0 0 0-.018.326h.001l.048.029-.045-.027-.003.001c.032.059.082.107.14.136l-.002.001.049.019v.001-.001h.001c.032.01.063.015.096.015l.021-.001.003.001 7.248.09c.085-.001.165-.034.225-.093l.002-.002.017-.018-.001.001c8.188-9.399 16.355-18.758 25.709-26.004 2.337-1.81 4.779-3.509 7.232-5.216l-.003.001.013-.009-.009.002h0l.016-.005.004-.003v.001l.003-.003h0l.002-.001.005-.003.006-.004h0c2.532-1.761 5.096-3.544 7.658-5.529 4.906-3.8 9.775-8.316 14.275-14.738 4.858-6.934 9.283-16.091 13.604-25.035h0l.002-.004-.001-.003.004-.003.001.001v-.002h0v.001l.001-.003v.001c3.802-7.869 7.53-15.582 11.42-21.53 8.269-12.646 17.291-17.358 26.369-22.061l-.004.001c.14-.052.228-.194.209-.344-.02-.16-.156-.281-.317-.282v.001l-28.726-.237z" fill="#d40f0f"/><path d="M252.508 547.694h0l40.954.143a.7.7 0 0 1 .574.3h0l85.188 122.053a.7.7 0 0 1-.574 1.104h0l-41.853.129a.7.7 0 0 1-.581-.304h0l-84.289-122.325a.7.7 0 0 1 .581-1.101h0m-.005 1.405l.581-1.101 84.289 122.325-.581-.304 41.853-.129-.574 1.104-85.188-122.053.574.3-40.954-.143z"/><path d="M303.613 564.185c-.073 0-.132.059-.132.132l-.001.001c-1.338 9.235-2.666 18.508 1.702 28.803 2.193 5.168 5.821 10.592 9.437 15.999l.001.002.001.001c3.604 5.389 7.196 10.76 9.371 15.869 4.342 10.202 3.031 19.359 1.697 28.549-.005.038.006.076.031.105l.002.001 11.333 16.447c.025.036.066.057.108.057h.013l19.562-.066.088-.079c1.358-3.506 2.716-7.014 3.753-10.462s1.751-6.832 2.463-10.212l.002.001c.015-.041.009-.086-.016-.121l-59.307-84.967c-.032-.04-.066-.056-.102-.058l-.003.001v-.001z" fill="#11b570"/><path d="M362.938 649.241l-.007.002-.062.05-.004.006-.013.062c-.707 3.357-1.417 6.712-2.445 10.129-1.033 3.435-2.387 6.936-3.744 10.439h0v.001h0v.001l-.002.007v.001h0l.004.006-.003.003-.003.008v.001c0 .036.025.066.06.073v.001c.017 0 .022 0 .026-.001l-.004.001 20.571-.067.063-.063.003-.008v-.001-.003l-.011-.036-.001-.003-14.366-20.581-.052-.027-.005-.001z" fill="#113024"/><path d="M272.418 549.057l-.098.06c-1.568 3.086-3.138 6.186-3.886 9.596-.751 3.424-.67 7.155-.59 10.872a.11.11 0 0 0 .042.084l-.003.001 57.822 83.915a.11.11 0 0 0 .124.043.11.11 0 0 0 .078-.105v-.001l.001.001c1.331-9.17 2.642-18.37-1.719-28.616-2.184-5.132-5.79-10.522-9.392-15.907l-.058-.087c-3.6-5.382-7.188-10.758-9.359-15.876-4.346-10.244-3.023-19.468-1.683-28.717l.001.001c.011-.034.006-.071-.014-.099l-10.5-15.043c-.02-.03-.053-.049-.091-.049l-20.671-.072z" fill="#45cb95"/><path d="M253.846 549.033a.07.07 0 0 0-.058.11l14.081 20.436a.07.07 0 0 0 .058.03c.007 0 .014-.001.021-.003a.07.07 0 0 0 .049-.067v-.002c-.08-3.706-.156-7.401.587-10.79.74-3.375 2.293-6.45 3.857-9.527l-.003.001c.017-.017.026-.04.022-.065a.07.07 0 0 0-.069-.058l-18.545-.064z" fill="#113024"/><path d="M196.066 516.699v.003l.007-.002h-.009.002v-.001.001zm35.306-2.641v.001l2.081.921c1.556 2.879 3.121 1.607 3.121 5.111a20.4 20.4 0 0 1-20.396 20.396 20.4 20.4 0 0 1-20.396-20.396c0-1.15.692-.633.692-.633 1.946 2.801 5.475 3.346 8.419 3.059 3.953-.385 8.516-3.58 11.743-6.239.563-.464 7.213-4.293 7.213-4.293zm-15.193-14.435v.003c-10.13-.003-18.541 7.356-20.179 17.021l-.002.001-.038.018-.019.026a20.66 20.66 0 0 0-.28 3.398c0 11.332 9.186 20.517 20.517 20.517s20.517-9.186 20.517-20.517a20.42 20.42 0 0 0-2.461-9.75l-.007-.009-.024-.022-.01-.006-.002-.001-.03.001-.003.001c-3.471-6.363-10.221-10.68-17.98-10.68v.001-.001.001z" fill="#108957"/><path d="M225.016 508.428a6.1 6.1 0 0 0-.726.042c-1.821.218-3.435 1.322-5.218 2.792l-1.45 1.228c-.092.078-.001 0-.093.078v.001l-1.603 1.354c-3.227 2.66-7.361 5.525-10.822 6.016a7.93 7.93 0 0 1-1.112.079c-2.955 0-5.439-1.671-7.93-3.348v.001l-.005-.004-.006-.003-.002-.001-.072.037c-.184 1.104-.28 2.237-.28 3.393 0 11.312 9.17 20.482 20.481 20.482s20.481-9.17 20.481-20.482c0-3.523-.89-6.838-2.456-9.733l-.024-.022-.002-.001-.068.031c-.09.282-.18.551-.657.551-.281 0-.696-.093-1.323-.335-.301-.116-.644-.264-1.03-.43l-.073-.032-.001-.001c-1.631-.706-3.904-1.69-6.009-1.69z" fill="#11b570"/><path d="M199.169 649.142v.002l-.001.001-.002-.003.002.001v-.001.001zm.037 20.661v.003.016h0 0 0v-.019zm-.002.019v.003h-.003 0l.003-.003v.001-.001.001zm.002 0v.003.001-.004.005h0 0v.001-.005zm-.023.029v.003l-.006.003h.012v.001l.005.01-.006.006.008.003-.019.008v-.001l.011-.011-.011-.004v-.018.001l.006-.001v.001-.001.001zm33.62-120.249v.003l.713 120.366-34.311-.176 3.47-19.332c4.749-10.412 8.295-21.526 10.401-34.95 1.093-6.969 1.496-12.189 2.008-21.948.272-5.169.199-14.675 1.252-20.421 2.045-11.15 6.296-17.143 10.935-22.747l5.532-.795zm-33.831-.123v.003l-.028.025.153 99.667c-.002.004-.007.014-.015.032l.002.024-.006.002.035 20.59h.036v.001l.009.009-.018.017.016.001-.007.007v.001l.021.008.008.018h0l.001.001 34.344.166.051-.015v-.001-.007h.007l.029-.028v-.002l-.777-120.489-7.155-.011-.028.013-.01.007-26.667-.039z" fill="#108957"/><path d="M198.269 548.1h0l35.261.069a.7.7 0 0 1 .701.698h0l.721 121.833a.7.7 0 0 1-.706.706h0l-35.775-.185c-.386-.002-.698-.315-.699-.701h0l-.207-121.717c0-.187.074-.366.206-.498a.7.7 0 0 1 .498-.206h0m-.003 1.405l.704-.704.207 121.717-.699-.701 35.775.185-.706.706-.721-121.833.701.698-35.261-.069zm39.749-29.413h0a21.84 21.84 0 0 1-21.836 21.836h0a21.84 21.84 0 0 1-21.836-21.836h0a21.84 21.84 0 0 1 21.836-21.836h0a21.84 21.84 0 0 1 21.836 21.836h0m-1.405 0h0c0-11.284-9.147-20.431-20.431-20.431h0c-11.284 0-20.431 9.147-20.431 20.431h0c0 11.284 9.147 20.432 20.431 20.432h0c11.284 0 20.431-9.148 20.431-20.432z"/><path d="M225.687 549.523l-.028.013c-4.65 5.615-9.235 11.373-11.285 22.551-1.059 5.773-1.441 12.995-1.84 20.53h0v.003h0c-.394 7.438-.804 15.183-1.897 22.151-2.111 13.456-6.769 24.009-11.531 34.446l.029.045-.03-.03.035 20.59h.071l-.035.035 34.367.179.036-.036v-.001l-.749-120.461-7.141-.014z" fill="#11b570"/><path d="M129.874 509.422v.004.001-.005.001-.001.001-.001.001zm3.913-.645v.004a69.51 69.51 0 0 0-3.946.101h-.003-.001l-.065.004v.001l-.047.002-.005.001-.013.001c-17.23.96-34.786 8.251-44.884 17.409-10.064 9.128-12.734 20.121-15.399 31.179-.012.051-.017.103-.013.155v.001l-.114 65.498c5.691-1.336 11.085-6.27 13.889-11.822 1.186-2.348 3.227-7.265 3.227-7.265 1.532-4.416 3.067-9.07 5.413-11.936 3.795-4.636 13.676-3.969 13.676-3.969l-.7-27.736c0-.032.008-.063.023-.091l-.001.001.006-.011.002-.002v.001l.027-.044-.001.001.013-.019.039-.061c3.43-5.369 6.901-10.768 12.535-14.244 3.732-2.302 8.404-3.757 13.958-4.056v.001c.699-.039 1.437-.058 2.164-.058 2.281 0 4.698.186 7.248.577 9.604 1.473 21.104 5.858 32.624 10.299h0c.06.023.123.034.185.034.103 0 .204-.031.291-.09h0v.001l.007-.007.001.001a.52.52 0 0 0 .206-.323v.001l6.416-33.232c.009-.049.012-.099.007-.149l-.002.001-.268.025.269-.026c-.02-.205-.16-.379-.356-.442h-.001l-.011-.003v.001c-15.407-4.895-30.783-9.714-46.398-9.714v.001-.001.001-.001z" fill="#033e44"/><path d="M69.927 557.514h0l-.815 113.493-.712-.707 37.704-.536-.692.711-.674-54.221a.7.7 0 0 1 .704-.711h0l52.298.151-.704.704-.078-33.137.708.701-52.503.408a.7.7 0 0 1-.708-.697h0l-.165-23.264a.7.7 0 0 1 .11-.383h0c3.445-5.393 6.983-10.953 12.777-14.527h0c4.3-2.653 9.799-4.19 16.392-4.19h0c2.31 0 4.751.188 7.326.583h0c9.889 1.517 21.754 6.095 33.514 10.629l-.942.522 6.692-34.672.477.802c-15.623-4.964-31.119-9.881-46.851-9.881h0c-1.348 0-2.693.036-4.044.111h0c-17.128.954-34.569 8.207-44.57 17.278h0c-9.955 9.029-12.59 19.9-15.262 30.993l.02-.159m-1.405-.01c0-.054.007-.107.02-.159h0c2.666-11.064 5.371-22.35 15.684-31.704h0c10.267-9.312 28.026-16.67 45.436-17.64h0c1.379-.077 2.748-.113 4.122-.113h0c15.988 0 31.695 4.996 47.276 9.947a.7.7 0 0 1 .477.803h0l-6.692 34.672a.7.7 0 0 1-.942.522h0c-11.809-4.553-23.516-9.062-33.222-10.551h0c-2.509-.385-4.88-.567-7.113-.567h0c-6.374 0-11.608 1.485-15.654 3.981h0c-5.476 3.378-8.856 8.649-12.33 14.087l.11-.383.165 23.264-.708-.697 52.503-.408a.7.7 0 0 1 .708.701h0l.078 33.137a.7.7 0 0 1-.704.704h0l-52.298-.151.704-.711.674 54.221c.005.387-.305.706-.692.711h0l-37.704.536a.7.7 0 0 1-.505-.204c-.134-.133-.209-.315-.207-.504h0l.815-113.493z"/><path d="M156.957 583.723v.001l-51.46.401c-12.113.385-15.847 4.946-15.847 4.946-2.293 2.801-3.854 7.28-5.42 11.796l-.021.06c-1.003 2.891-2.008 5.783-3.209 8.16-3.072 6.08-7.405 8.759-11.648 11.366v.001a.23.23 0 0 0-.077.069v.001a.24.24 0 0 0-.045.157l-.001.001v.009l-.356 49.601c0 .049.016.098.044.139l-.001.001c.044.062.117.104.2.104l.001.001c.008-.001.017-.001.025-.002l-.001.001 36.264-.516c.133-.002.24-.111.24-.244v-.001-.003l-.665-53.519a.46.46 0 0 1 .133-.328v.001c.086-.088.203-.137.326-.137l.001.001 51.593.15a.25.25 0 0 0 .172-.072c.046-.046.072-.108.072-.173v-.002l-.074-31.725c0-.065-.026-.127-.072-.173s-.107-.071-.172-.071l-.002.001z" fill="#0d5356"/></svg>