<svg width="250" height="320" viewBox="70 400 470 170" xmlns="http://www.w3.org/2000/svg"><g fill="#033e44"><path d="M418.445 317.975v.001c-.13-.001-.261.028-.381.087l-.711.346v.001L271.3 386.829c-42.253 17.922-74.559 28.372-106.886 38.826v.001a.87.87 0 0 0-.592.963l.008.038-.001.001c.009.042.02.083.035.123l-.002.001 92.51 343.942a.87.87 0 0 0 .445.549h0a.86.86 0 0 0 .141.057h.001c.038.012.076.02.115.027l-.003.001c4.71 1.097 8.983 1.989 12.409 2.488l.007.001.002.001.012.002c2.616.379 4.735.53 6.548.53 3.286 0 5.501-.498 7.654-.982l.023-.006.046-.013.023-.007.003-.001.015-.006.03-.012.015-.006 228.873-98.503v.001c.32-.139.526-.453.526-.801v-.001l-.004-.056-.014-.112-.011-.055-23.563-88.927v-.002.001-.001.001c-.008-.031-.017-.061-.028-.088a.87.87 0 0 0-.344-.424h0a.87.87 0 0 0-.411-.136l.001.001c-.022-.003-.039-.003-.059-.003a.87.87 0 0 0-.221.029h-.001c-.048.013-.096.03-.142.051h0l-155.32 71.493-9.367-35.536 155.46-73.342a.87.87 0 0 0 .499-.788v-.001l-.004-.057-.015-.113-.011-.056-24.616-91.323v.001a.71.71 0 0 0-.014-.049h0a.87.87 0 0 0-.36-.461h0a.87.87 0 0 0-.838-.053L299.03 526.928l-9.254-34.505 154.396-73.309.014-.01-.014.01a.87.87 0 0 0 .47-1.002v.001l-25.353-99.483h0a.87.87 0 0 0-.466-.57v.001l-.013-.007-.002-.001h-.001c-.115-.052-.238-.079-.362-.079v.001z"/><path d="M241.508 414.644h0c-22.686 6.416-46.614 13.238-68.554 13.238h0c-5.345 0-10.632-.401-15.813-1.324h0c-26.394-4.701-48.626-22.748-57.034-40.675h0c-8.792-18.747-1.951-36.292 3.366-50.601l11.867 6.724c-7.823 9.772-14.262 18.014-16.388 27.549h0c-2.164 9.703-.046 21.431 2.559 35.107l-.109-.48 76.005 286.272-.467-1.253.039.079-.001-.001c9.498 19.48 18.214 37.056 31.539 47.998h0c13.311 10.931 31.79 15.7 52.308 20.852a6.91 6.91 0 0 1 5.017 8.382 6.91 6.91 0 0 1-8.382 5.017h0c-19.756-4.961-41.551-10.305-57.71-23.575h0c-16.104-13.225-26.046-33.866-35.19-52.62l-.001-.001-.039-.079c-.195-.401-.352-.821-.467-1.253h0L88.05 407.727c-.042-.159-.079-.319-.109-.48h0c-2.448-12.849-5.382-27.647-2.472-40.699h0c2.948-13.221 11.71-23.963 19.087-33.177a6.91 6.91 0 0 1 11.867 6.724h0c-5.653 15.21-9.783 27.184-3.808 39.922h0c6.359 13.558 24.631 28.965 46.949 32.94h0c4.265.76 8.732 1.11 13.39 1.11h0c19.643 0 41.598-6.156 64.795-12.716a6.91 6.91 0 0 1 8.527 4.767 6.91 6.91 0 0 1-4.767 8.527z"/></g><path d="M299.15 202.524c-.029 0-.056.013-.073.036L153.613 387.568c-.022.028-.026.066-.011.098s.048.052.084.052l.056-.019 181.714-137.447c.02-.015.033-.037.036-.062s-.003-.049-.018-.069l-36.25-47.562c-.017-.023-.045-.036-.073-.037z" fill="#d10f0f"/><path d="M175.001 399.935h.001 0v-.001zm211.56-157.223c-.02 0-.039.006-.056.018L174.997 399.929c-.024.018-.037.045-.038.074l-.002.001-.002.002v.001c0 .035.02.067.051.083.013.007.028.01.042.01s.03-.004.044-.011l-.002.001 222.278-99.288.054-.102-10.772-57.911c-.006-.032-.028-.058-.058-.07-.011-.004-.023-.006-.034-.006z" fill="#f80000"/><path d="M195.487 195.875c-.044.003-.075.027-.088.062l-64.551 181.326c-.015.043.003.09.042.112.014.008.03.012.045.012.027 0 .054-.012.073-.035l97.45-120.924.021-.058v-.001l-.011-.045-32.898-60.401c-.016-.03-.048-.049-.082-.049z" fill="#b40c0c"/></svg>