<svg xmlns="http://www.w3.org/2000/svg" xmlns:xlink="http://www.w3.org/1999/xlink" viewBox="0 0 216.424 201.396"><style><![CDATA[.b{fill:#fff}.c{fill:#033e44}.d{fill:rgb(255 198 194)}.e{fill:rgb(28 209 198)}.f{fill:#1d867c}.g{fill:#eee}.h{fill:#32b380}.i{fill:#1e635d}.j{stroke:#033e44}.k{fill:rgb(235 182 179)}.l{fill:rgba(255, 255, 91, 0.494)}]]></style><path d="M146.306 9.112a1.888 1.888 0 1 0 3.776 0 1.888 1.888 0 1 0-3.776 0zm7.167 0a1.888 1.888 0 1 0 3.776 0 1.888 1.888 0 1 0-3.776 0z" class="g"/><g class="k"><use xlink:href="#A"/><path d="M193.915 13.64h-5.082l1.135-2.669a1.8 1.8 0 0 0 .134-.909l-.24-2.1a1.653 1.653 0 0 0-1.666-1.479h-2.02l-.171 3.259-3.275 4.131a2.512 2.512 0 0 0-.548 1.429l-.393 7.495a1.724 1.724 0 0 0 1.738 1.833h7.111a2.248 2.248 0 0 0 1.66-.752l.663-.737a2.254 2.254 0 0 0 .527-1.015l1.558-6.941z"/><use xlink:href="#A"/></g><use xlink:href="#B" class="O"/><path d="M28.013 109.958a.854.854 0 0 1 0-1.708h2.914a.854.854 0 0 1 0 1.708z" class="h"/><path d="M28.013 128.407a.854.854 0 0 1-.854-.854.855.855 0 0 1 .854-.854h2.914a.854.854 0 0 1 0 1.708z" class="O"/><use xlink:href="#B" y="17.846" class="h"/><path d="M199.294 139.336a1.557 1.557 0 0 0-1.384-.421 1.461 1.461 0 0 0-1.009 1.193 1.31 1.31 0 0 0 .673 1.441c.577.177 1.154-.425 1.741-.32a4.473 4.473 0 0 1 .607.233c.844.285 1.681-.413 2.382-1.073a2.944 2.944 0 0 0 .663-.8 1.342 1.342 0 0 0 .07-1.106 1.016 1.016 0 0 0-1.152-.475 4.162 4.162 0 0 0-2.347 1.241l.066-.507zm12.269-.918a2.1 2.1 0 0 0-.738-.49.658.658 0 0 0-.764.271 1.142 1.142 0 0 0 .213 1.282 1.935 1.935 0 0 0 1.076.461c.389.077.879.094 1.072-.34a1 1 0 0 0-.182-.984 1.834 1.834 0 0 0-.765-.477zm-19.382-8.076a3.329 3.329 0 0 0-1.568 2.374c-.055.316-.047.713.172.881a.575.575 0 0 0 .529.017l2.246-.675a3.043 3.043 0 0 0-1.012.679 1.582 1.582 0 0 0-.385 1.3 1.079 1.079 0 0 0 1.041.886 2.013 2.013 0 0 0 1.238-.624 2.07 2.07 0 0 0 .78-1.456c.008-.609-.6-1.174-.968-.783a7.567 7.567 0 0 0 2.411-1.389 2.574 2.574 0 0 0 .7-.826 1.45 1.45 0 0 0 .071-1.159c-.768-1.765-1.738.824-2.21 1.054-.898.437-1.905-.88-3.045-.279zm-3.492 7.533a1.116 1.116 0 0 0 .2.986.427.427 0 0 0 .717-.187 2.46 2.46 0 0 0-1.349.96c-.312.534-.235 1.469.264 1.675a1.028 1.028 0 0 0 .932-.263 17.222 17.222 0 0 0 2.321-1.935 1.16 1.16 0 0 0 .872 1.45 2.361 2.361 0 0 0 1.56-.689 2.211 2.211 0 0 0 1.107-1.99 1.1 1.1 0 0 0-1.454-.848 3.543 3.543 0 0 0-1.407 1.363 1.139 1.139 0 0 0-.684-1.538 1.554 1.554 0 0 0-1.4.821c.624-.434.764-1.564-.072-1.7-.552-.081-1.475 1.321-1.607 1.895zm17.141-2.537a.921.921 0 0 0-1.189.782 1.215 1.215 0 0 0 .737 1.418 1.349 1.349 0 0 0-.952.628 1.1 1.1 0 0 0-.2.709.732.732 0 0 0 .671.648 1.684 1.684 0 0 0 .874-.31 1.381 1.381 0 0 0-.86.315.833.833 0 0 0-.128 1 .613.613 0 0 0 .719.1 3.471 3.471 0 0 0 1.471-1.048 1.3 1.3 0 0 0 1.233.657 1.076 1.076 0 0 0 .7-1.273.945.945 0 0 0-.762-.7 1.869 1.869 0 0 0-.975.193 2.237 2.237 0 0 0 .783-1.092c.118-.478-.137-1.121-.533-1.083-.444.044-.671.809-1.022 1.084-.429-.511.382-1.579-.567-2.028zm-8.003-2.337a2.623 2.623 0 0 0-.645 2.057 2.542 2.542 0 0 0 .962 2.1c.812.449 1.826-.406 1.975-1.512a2.947 2.947 0 0 0-1.21-2.746.969.969 0 0 0-1.082.101zm5.669-.919l.209.228a.909.909 0 0 0-1.48-.148 1.6 1.6 0 0 0 0 1.879.909.909 0 0 0 1.481-.136 1.3 1.3 0 0 0 1.771-.419 1.727 1.727 0 0 0-.243-2.13c-.562-.4-1.417.2-1.357 1.016l-.244-.344zm6.258 1.28a4.2 4.2 0 0 0-.966 1.721c-.147.688.1 1.564.642 1.739s1.057-.391 1.366-.981a2.594 2.594 0 0 0 .332-1.8c-.161-.606-.85-.965-1.2-.5zm-9.017-4.157a.827.827 0 0 0-1.276-.444 1.634 1.634 0 0 0-.395 1.674 1.485 1.485 0 0 0 1.158 1.054 1.142 1.142 0 0 0 1.2-1.306 1.186 1.186 0 0 0 1.178.563 2.752 2.752 0 0 0 1.222-.582 2.054 2.054 0 0 0 1.013-1.708 1.2 1.2 0 0 0-.973-1.114 1.607 1.607 0 0 0-1.3.613 12.512 12.512 0 0 1-.826.953.871.871 0 0 1-1.053.188z" fill="#fffafafa"/><path d="M.51 195.106a107.702 6.29 0 1 0 215.404 0 107.702 6.29 0 1 0-215.404 0z" fill="rgba(13, 83, 86, 0.2)"/><use xlink:href="#C" class="b"/><use xlink:href="#C" class="e"/><use xlink:href="#D" class="b"/><use xlink:href="#D" class="c"/><use xlink:href="#E" class="b"/><use xlink:href="#E" class="i"/><g class="f"><use xlink:href="#F"/><use xlink:href="#F"/><use xlink:href="#G"/></g><use xlink:href="#G" class="i"/><use xlink:href="#H" class="b"/><use xlink:href="#H" class="f"/><g class="i"><use xlink:href="#I"/><use xlink:href="#I"/><use xlink:href="#J"/></g><g class="h"><use xlink:href="#J" class="c"/><path d="M149.174 167.835a23.029 23.029 0 0 1 1.5 11.438 41.873 41.873 0 0 0-2.533-12.09 1.217 1.217 0 0 1 1.033.652zm-9.291-.35a22.021 22.021 0 0 0-5.13 9.116 16.424 16.424 0 0 1 4.228-9.126c.233-.251.595-.141.902.01zm-2.539-3.185a12.258 12.258 0 0 0-3.974-1.45c-2.046-.242-4.065.687-5.972 1.468a19.185 19.185 0 0 1 4.973-1.914 6.475 6.475 0 0 1 5.1.982l-.127.914zm23.316 9.55a21.959 21.959 0 0 0-2.607-4.023 7.371 7.371 0 0 0-4-2.5c.462 0 1.02-.141 1.483-.141a11.627 11.627 0 0 1 5.176 6.773c.039-.093-.097-.003-.052-.109zm-16.444-9.416a12.314 12.314 0 0 0-5.283-6.49 11.412 11.412 0 0 1 3.975 5.506c.122.367.119.807.252 1.17a.973.973 0 0 0 1.056-.186zm11.138-4.892a9.373 9.373 0 0 0-5.862 5.375c.2.1.2.2.4.3a5.868 5.868 0 0 1 2.4-3.264l3.062-2.411zm10.192 6.542a7.385 7.385 0 0 0-5.993-3.05 13.891 13.891 0 0 0-6.7 1.788v.792a10.047 10.047 0 0 1 6.318-1.844 10.644 10.644 0 0 1 6.375 2.314z"/></g><path d="M144.239 141.067H63.707a4.67 4.67 0 0 1-4.719-5.074l8.651-123.699a5.528 5.528 0 0 1 5.429-5.074H153.6a4.67 4.67 0 0 1 4.719 5.074l-8.649 123.695a5.528 5.528 0 0 1-5.431 5.078z" class="g"/><g class="b"><path d="M141.135 135.119h-73.11a4.67 4.67 0 0 1-4.72-5.075l7.882-112.74a5.527 5.527 0 0 1 5.429-5.075h73.11a4.67 4.67 0 0 1 4.719 5.075l-7.883 112.74a5.528 5.528 0 0 1-5.427 5.075z"/><path d="M116.756 7.22L66.081 141.067h18.868L134.642 7.223"/></g><path d="M90.436 17.817h1.347l-.507 7.256h-1.348zm2.242 6.489l.539-1.047a3.783 3.783 0 0 0 2.339.8c1.13 0 1.635-.4 1.672-.944.109-1.565-4.274-.539-4.086-3.234.082-1.172 1.085-2.166 3.075-2.166a4.354 4.354 0 0 1 2.37.643l-.5 1.047a3.825 3.825 0 0 0-1.961-.57c-1.12 0-1.607.435-1.645.985-.108 1.545 4.264.539 4.078 3.2-.082 1.161-1.094 2.156-3.085 2.156a4.41 4.41 0 0 1-2.796-.87zm6.816-2.86a4.041 4.041 0 0 1 4.169-3.732 3.419 3.419 0 0 1 3.647 3.732 4.034 4.034 0 0 1-4.169 3.732 3.424 3.424 0 0 1-3.647-3.732zm6.458 0a2.28 2.28 0 0 0-2.372-2.55 2.689 2.689 0 0 0-2.728 2.55 2.28 2.28 0 0 0 2.372 2.55 2.69 2.69 0 0 0 2.728-2.55zm10.731-.125c-.174 2.488-1.721 3.856-3.825 3.856a3.467 3.467 0 0 1-1.875-.467l.569-1.016a2.345 2.345 0 0 0 1.354.353 2.335 2.335 0 0 0 2.4-2.5v-.01a2.649 2.649 0 0 1-1.991.757 2.092 2.092 0 0 1-2.342-2.229 2.628 2.628 0 0 1 2.818-2.353c1.983.002 3.055 1.277 2.892 3.609zm-1.473-1.327c.048-.684-.454-1.223-1.418-1.223a1.367 1.367 0 0 0-1.506 1.234c-.053.757.484 1.234 1.365 1.234a1.434 1.434 0 0 0 1.56-1.245zm2.379 1.452c.167-2.384 1.567-3.732 3.287-3.732s2.943 1.348 2.777 3.732-1.567 3.732-3.3 3.732-2.931-1.348-2.764-3.732zm4.706 0c.122-1.752-.5-2.561-1.5-2.561s-1.726.809-1.848 2.561.505 2.56 1.49 2.56 1.735-.809 1.858-2.56zm2.27 0c.167-2.384 1.567-3.732 3.288-3.732s2.943 1.348 2.776 3.732-1.567 3.732-3.3 3.732-2.928-1.348-2.764-3.732zm4.706 0c.122-1.752-.505-2.561-1.5-2.561s-1.726.809-1.848 2.561.505 2.56 1.49 2.56 1.738-.809 1.861-2.56zm4.986-3.629l-.508 7.256h-1.348l.428-6.126h-1.534l.079-1.13z" class="c"/><g class="b"><path d="M88.833 31.086a2.637 2.637 0 0 1 2.72-2.447 2.243 2.243 0 0 1 1.827.8l-.608.537a1.554 1.554 0 0 0-1.232-.558 1.766 1.766 0 0 0-1.816 1.673 1.5 1.5 0 0 0 1.583 1.672 1.778 1.778 0 0 0 1.31-.564l.533.544a2.591 2.591 0 0 1-1.945.795 2.233 2.233 0 0 1-2.372-2.452z"/><use xlink:href="#K"/></g><use xlink:href="#Y" class="h j"/><path d="M132.557 45.231s2.926 3.564 2.884 3.168l.29-.331a33.149 33.149 0 0 1 8.153-6.721l.583-.34c-4.218.732-8.886 5.379-8.886 5.379l-1.273-1.668z" class="c"/><use xlink:href="#Y" x="-1.403" y="20.06" class="h j"/><path d="M131.157 65.289s2.926 3.564 2.883 3.168l.291-.33a33.147 33.147 0 0 1 8.153-6.72l.583-.341c-4.218.732-8.886 5.379-8.886 5.379l-1.273-1.668z" class="c"/><path d="M128.344 86.381a5.021 5.021 0 0 1 4.931-4.609 4.242 4.242 0 0 1 4.286 4.609 5.02 5.02 0 0 1-4.931 4.608 4.241 4.241 0 0 1-4.286-4.608z" class="h j"/><path d="M129.755 85.349s2.926 3.564 2.884 3.168l.291-.331a33.134 33.134 0 0 1 8.153-6.72l.583-.341c-4.218.732-8.887 5.379-8.887 5.379l-1.273-1.668z" class="c"/><g class="j"><path d="M106.474 41.109H85.089m39.282 0h-12.906m-20.873 4.805H78.879m44.146 0H94.769m13.282 4.804H78.282m44.146 0H112.7m-27.103 4.805h-7.729m27.207 5.582H83.69m39.282 0h-12.906M89.193 65.91H77.48m44.146 0H93.37m13.282 4.804H76.883m44.146 0h-9.728m-27.103 4.805h-7.729m28.209 5.581H83.293m39.282 0h-12.906m-20.873 4.805H77.083m44.146 0H92.973m13.282 4.804H76.486m44.146 0h-9.728m-27.103 4.805h-7.729" class="h"/><path d="M116.941 115.671a6.828 6.828 0 0 1 4.014-3.339 4.092 4.092 0 0 1 3.653.44 2.514 2.514 0 0 1 .5 3.4 24.321 24.321 0 0 1-5.688 5.714c-.513.339-1.158.665-1.679.413-.568-.273-.628-1.068-.461-1.7a5.506 5.506 0 0 1 1.655-2.582 11.158 11.158 0 0 1 2.6-1.7 5.008 5.008 0 0 1 3.365-.7 2.468 2.468 0 0 1 1.624 1.38 2.714 2.714 0 0 1-.051 2.2 2.3 2.3 0 0 1 .563-.794.671.671 0 0 1 .823-.161.694.694 0 0 1 .155.764 3.316 3.316 0 0 1 .644-1.308 1.091 1.091 0 0 1 1.3-.3 1.2 1.2 0 0 1 .3 1.346c1.358-2.822 2.756-3.582 4.89-3.648m-19.39 11.571h19.529" stroke-linecap="round" stroke-linejoin="round" class="b"/></g><use xlink:href="#Z" class="b"/><use xlink:href="#Z" class="e"/><path d="M79.171 123.588v27.228l7.353-7.353 7.314 7.314v-27.322z" class="f"/><path d="M71.351 118.026a15.071 15.071 0 1 1 30.142 0 15.071 15.071 0 1 1-30.142 0" class="b"/><path d="M84.569 105.946h0a2.493 2.493 0 0 1 3.685-.029h0a2.494 2.494 0 0 0 2.6.677h0a2.492 2.492 0 0 1 3.206 1.818h0a2.492 2.492 0 0 0 1.917 1.888h0a2.493 2.493 0 0 1 1.867 3.177h0a2.492 2.492 0 0 0 .717 2.593h0a2.493 2.493 0 0 1 .029 3.685h0a2.493 2.493 0 0 0-.676 2.6h0a2.493 2.493 0 0 1-1.818 3.206h0a2.491 2.491 0 0 0-1.888 1.917h0a2.493 2.493 0 0 1-3.177 1.868h0a2.493 2.493 0 0 0-2.594.716h0a2.492 2.492 0 0 1-3.685.029h0a2.492 2.492 0 0 0-2.6-.676h0a2.493 2.493 0 0 1-3.206-1.818h0a2.493 2.493 0 0 0-1.917-1.888h0a2.493 2.493 0 0 1-1.867-3.177h0a2.493 2.493 0 0 0-.717-2.594h0a2.493 2.493 0 0 1-.028-3.685h0a2.493 2.493 0 0 0 .676-2.6h0a2.493 2.493 0 0 1 1.818-3.206h0a2.494 2.494 0 0 0 1.888-1.918h0a2.492 2.492 0 0 1 3.177-1.867h0a2.493 2.493 0 0 0 2.593-.716z" class="e"/><use xlink:href="#L" class="b"/><use xlink:href="#L" class="g"/><path d="M77.589 118.005a8.833 8.833 0 1 1 17.666 0 8.833 8.833 0 1 1-17.666 0" class="e"/><path d="M91.584 116.389h-1.916a.733.733 0 0 1-.674-1.02l.324-.763a1.2 1.2 0 0 0 .089-.607l-.085-.749a1.856 1.856 0 0 0-1.843-1.645h0a.734.734 0 0 0-.733.695l-.065 1.249a.736.736 0 0 1-.158.417l-2.043 2.577a1.677 1.677 0 0 0-.366.955l-.222 4.237a1.882 1.882 0 0 0 1.895 2h3.978a1.5 1.5 0 0 0 1.11-.5l.315-.35a2.261 2.261 0 0 0 .524-1.016l.924-4.118a.733.733 0 0 0-.124-.594l-.339-.462a.733.733 0 0 0-.591-.306z" class="g"/><path d="M82.786 116.389h-1.161a1.059 1.059 0 0 0-1.045.993l-.281 5.356a.934.934 0 0 0 .941.993h1.161a1.058 1.058 0 0 0 1.044-.993l.281-5.356a.934.934 0 0 0-.94-.993z" class="c"/><g class="d"><path d="M168.814 61.961l-3.38 13-11.838-8.2a16.462 16.462 0 0 0-1.839 3.2s11.52 11.682 15.533 9.722 6.778-17.722 6.778-17.722z"/><path d="M150.841 70.938a7.739 7.739 0 0 1-2.835-.538l-1.009-.4a1.1 1.1 0 0 1-.588-.97v-2.936c0-.683.444-1.385 1.115-1.263l4.488-.166 2.85 2.965-1.93 3.3z"/><path d="M152.192 65.016a8.409 8.409 0 0 1-.74-2.542.559.559 0 0 0-.646-.537h0a.556.556 0 0 0-.465.537l-.058 2.738a.556.556 0 0 0 .42.551l1.339.337.181-.719a.559.559 0 0 0-.031-.365z"/></g><path d="M186.021 53.376c-.547-.913-.758-1.849-1.3-2.761-.087.006 3.52-.594 5.849-6.325 3.466-1.845-1.247 5.459-2.922 7.477a5.044 5.044 0 0 1 4.1 4.381c.183 1.636-1.374 3.152-2.654 4.189a9.935 9.935 0 0 1-3.073-6.961z" class="c"/><use xlink:href="#a" class="d"/><use xlink:href="#b" class="e"/><path d="M179.962 190.146l5.354-.091a.411.411 0 0 1 .412.315l1 4.23a.707.707 0 0 1-.536.844.735.735 0 0 1-.152.017c-1.873 0-2.782-.1-5.14-.055l-7.213.276c-2.004.034-2.291-1.945-1.477-2.138 3.678-.87 5.806-2.015 6.97-3.095a1.161 1.161 0 0 1 .782-.303z" class="c"/><use xlink:href="#a" x="11.656" class="d"/><use xlink:href="#b" x="11.663" class="e"/><path d="M191.625 190.146l5.354-.091a.411.411 0 0 1 .412.315l1 4.23a.707.707 0 0 1-.536.844.735.735 0 0 1-.152.017c-1.873 0-2.782-.1-5.14-.055l-7.213.276c-2.004.034-2.291-1.945-1.477-2.138 3.678-.87 5.806-2.015 6.97-3.095a1.162 1.162 0 0 1 .782-.303z" class="c"/><path d="M179.267 186.701l6.323-.488s3.361-23.947-.722-45.516l1.868-52.449-15.3-.056c-.958 5.7-.414 38.861 1.631 55.379z" class="f"/><path d="M184.58 106.141l-4.357.275c-.683 5.135 1.631 15.917 3.828 22.222l.529-22.497z" class="c"/><path d="M190.881 186.701l6.323-.488s3.095-26.007-.675-44.009l1.241-40.343a13.122 13.122 0 0 0-13.066-13.663l-1.65-.006c-.958 5.7-1.145 42.934.673 55.181z" class="i"/><path d="M169.798 56.796c-.725.367-4.327 11.075-4.327 11.075l7.708 3.7s2.095-9 2.982-11.975c.928-3.088-3.908-4.837-6.363-2.8z" class="b"/><path d="M169.798 56.796c-1.11 1.035-4.327 11.075-4.327 11.075l7.708 3.7s2.095-9 2.982-11.975c.928-3.088-3.908-4.837-6.363-2.8z" class="f"/><path d="M170.504 59.873a42.889 42.889 0 0 0-1.4 5.963 5.927 5.927 0 0 0 .006 1.417l1.976 16.317c.1.828.267 3.577-.545 9.3a139.065 139.065 0 0 0-.94 14.174l29.9-1.89c-.985-12.82-7.286-20.574-7.28-22.346.018-5.319.583-10.752 2.9-21.163a4.453 4.453 0 0 0-3.383-5.311q-.2-.044-.4-.07c-1.253-.163-2.644-.313-4.053-.384a66.582 66.582 0 0 0-9.5-.038c-2.224.2-2.537-.168-4.242.119-1.465.265-2.029 1.565-2.831 3.38a4.56 4.56 0 0 0-.208.532z" class="b"/><path d="M170.19 60.773a34.98 34.98 0 0 0-1.089 5.064 5.914 5.914 0 0 0 .007 1.419l1.975 16.316c.1.828.267 3.577-.545 9.3a139.071 139.071 0 0 0-.94 14.174l29.9-1.89c-.985-12.82-7.286-20.574-7.28-22.346.018-5.319.583-10.752 2.9-21.163a4.453 4.453 0 0 0-3.383-5.311q-.2-.044-.4-.07c-1.253-.163-2.644-.313-4.053-.384a66.582 66.582 0 0 0-9.5-.038c-2.224.2-2.537-.168-4.242.119-1.679.282-2.559 2.328-3.35 4.81z" class="e"/><path d="M171.679 87.024l20.8-.146v1.987h-20.8z" class="f"/><g class="b"><use xlink:href="#M"/><use xlink:href="#N"/><use xlink:href="#O"/></g><g class="g"><use xlink:href="#M"/><use xlink:href="#N"/><use xlink:href="#O"/></g><g class="b"><use xlink:href="#P"/><use xlink:href="#P" y="7.882"/><use xlink:href="#P" x=".748" y="14.985"/></g><path fill="rgb(16, 137, 87)" d="M178.388 92.475l-11.843.9a.933.933 0 0 1-.966-.749l-3.289-18.019a.724.724 0 0 1 .669-.873l11.843-.9a.933.933 0 0 1 .965.749l3.29 18.019a.725.725 0 0 1-.669.873z"/><use xlink:href="#Q" class="c"/><g class="g"><use xlink:href="#Q"/><path d="M175.357 72.847l-.558.042a.934.934 0 0 1 .966.749l3.289 18.019a.724.724 0 0 1-.669.873l.558-.042a.724.724 0 0 0 .669-.873l-3.289-18.019a.933.933 0 0 0-.966-.749z"/></g><g class="d"><path d="M196.732 59.603l1.019 8.246.283 4.186a35.856 35.856 0 0 1-.029 4.426 11.673 11.673 0 0 1-.188 1.36 5.933 5.933 0 0 1-.313 1.005 3.136 3.136 0 0 1-.2.372l-.122.229a2.927 2.927 0 0 1-.207.277l-.12.139-.038.072h0l-.03.056-.1.091-1.685 1.44a25.878 25.878 0 0 1-3.714 2.493 19.691 19.691 0 0 1-4.212 1.684 14.29 14.29 0 0 1-2.274.418l-1.18.064-.61-.024-.707-.076.272-2.842a2.425 2.425 0 0 1 .32-.072l.411-.1.839-.247a15.628 15.628 0 0 0 1.675-.685 20.314 20.314 0 0 0 3.1-1.914l1.443-1.2 1.357-1.242 1.3-1.362.052-.1.027-.051h0l-.024.046-.054.1a1.41 1.41 0 0 1-.131.172 1 1 0 0 0-.062.117l-.079.148-.017.031a4.415 4.415 0 0 0 .038-.674c0-1.119-.085-2.456-.211-3.754l-.428-3.962-1.015-8z"/><path d="M183.977 86.18l-5.414.682.379-4.96s3.07-.007 4.494 1.854z"/><path d="M175.648 85.733l-.253-1.9a1.411 1.411 0 0 1 1.184-1.569l2.362-.364-.379 4.96-1.437.091a1.4 1.4 0 0 1-1.477-1.218z"/></g><path d="M183.306,65.159h7.972v1.883h-7.972z" class="g"/><g class="f"><use xlink:href="#R"/><use xlink:href="#R"/></g><path d="M186.394 45.201c-.608 3.05-1.23 8.642.9 10.685a17.637 17.637 0 0 1-8.271 5.681c-2.388-4.212-1.227-5.719-1.227-5.719 3.405-.8 3.331-3.323 2.746-5.7z" class="d"/><path d="M185.759 45.741a12.752 12.752 0 0 1-1.288 5.235c-.556 1.123-2.083 1.619-3.627 1.735a8.288 8.288 0 0 0-.292-2.559z" class="k"/><path d="M191.268 41.398c-1.5 4.89-1.991 6.988-5.124 8.941-4.672 2.934-10.351.049-10.366-5.179-.007-4.707 2.435-11.908 7.734-12.731a6.963 6.963 0 0 1 7.989 5.758 6.962 6.962 0 0 1-.233 3.211z" class="d"/><g class="c"><path d="M188.062 31.426c-3.271-3.01-6.881-1.8-8.778-.81a7.662 7.662 0 0 0-3.845 4.9 2.827 2.827 0 0 0 1.59 3.24 8.252 8.252 0 0 1 1.825-2.53 5.767 5.767 0 0 1 4.281-.775 21.343 21.343 0 0 0 3.44 5.575 6.555 6.555 0 0 0 5.536 2.36 8.473 8.473 0 0 0 1.25-8.6c-1.283-2.814-5.299-3.36-5.299-3.36z"/><path d="M184.892 39.706a.385.385 0 0 1-.081-.1 4.782 4.782 0 0 0-2.622-1.338.244.244 0 0 1-.2-.279.243.243 0 0 1 .279-.2h0c.766.176 2.446.7 3 1.622a.248.248 0 0 1-.139.322.25.25 0 0 1-.237-.027zm-7.087-1.081l-.032-.031a.243.243 0 0 1-.006-.343 2.435 2.435 0 0 1 2.1-.653.243.243 0 0 1 .181.292v.006a.242.242 0 0 1-.292.179 1.925 1.925 0 0 0-1.679.53.243.243 0 0 1-.272.02z"/><path d="M189.957 42.322a3.66 3.66 0 0 0-2.475-1.352l-2.173-.234a2.348 2.348 0 0 0-2.088-2.44 2.347 2.347 0 0 0-2.537 1.832.7.7 0 0 0-.514-.056 2.348 2.348 0 0 0-2.088-2.331 2.356 2.356 0 0 0-2.591 2.087 2.356 2.356 0 0 0 2.086 2.591 2.351 2.351 0 0 0 2.574-2.005.383.383 0 0 1 .479.052 2.351 2.351 0 0 0 2.087 2.508 2.348 2.348 0 0 0 2.56-1.939l2.172.234a3.358 3.358 0 0 1 2.272 1.241l.625.777.234-.189zm-12.347-.2a2.054 2.054 0 0 1-1.819-2.26 2.054 2.054 0 0 1 2.26-1.82 2.054 2.054 0 0 1 1.819 2.26 2.054 2.054 0 0 1-2.258 1.818zm5.14.554a2.054 2.054 0 0 1-1.82-2.26 2.054 2.054 0 0 1 2.26-1.819 2.053 2.053 0 0 1 1.82 2.259 2.054 2.054 0 0 1-2.26 1.818z"/></g><path d="M192.381 44.157a3.693 3.693 0 0 1-1.821 2.215c-1.161.593-2.008-.374-1.908-1.611.092-1.11.808-2.761 2.081-2.853a1.678 1.678 0 0 1 1.746 1.606 1.669 1.669 0 0 1-.098.643z" class="d"/><path fill="#ffba4d3c" d="M180.133 41.019a11.1 11.1 0 0 1-2.046 2.24 1.783 1.783 0 0 0 1.371.61z"/><g class="c"><path d="M179.938 45.676a.131.131 0 0 1-.056-.127.121.121 0 0 1 .143-.095h0a3.3 3.3 0 0 0 2.868-.783.122.122 0 1 1 .172.172 3.465 3.465 0 0 1-3.095.848zm3.771-4.69c-.079.407-.357.7-.624.648s-.418-.423-.344-.829.357-.7.624-.648.418.422.344.829zm-4.713-.64c-.074.412-.351.7-.619.648s-.423-.417-.344-.829.352-.694.619-.648.423.422.344.829z"/><path d="M178.766 39.559l-.929-.469s.362.869.929.469zm4.713.643l-.929-.469s.357.865.929.469z"/></g><g class="b"><path d="M176.794 59.164c0 .063 2.209 2.8 2.209 2.8l4.445-2.04-1.848-1.028-1.986 1.006a4.788 4.788 0 0 1-.333-3.054c.362-1.804-2.487 2.316-2.487 2.316z"/><path d="M179.413 59.405a26.6 26.6 0 0 0-2.791 2.272c-.631-2.186.047-6.086 2.129-7l1.844-.891c-.828 1.462-1.903 3.412-1.182 5.619zm6.638-5.986c-.677 4.328-6.1 6.254-6.1 6.254.865.784 1.272 1.5 2.136 2.289a19.715 19.715 0 0 0 6.44-5.9l-2.422-2.709c-.054.066-.041-.019-.054.066z"/><use xlink:href="#S"/></g><use xlink:href="#S" class="l"/><use xlink:href="#T" class="b"/><use xlink:href="#T" class="l"/><use xlink:href="#U" class="b"/><use xlink:href="#U" class="l"/><g class="d"><path d="M59.495 63.903l7.3-.346 2.108-1.509a1.69 1.69 0 0 1 1.128-.077l3.37.251a1.691 1.691 0 0 1 1.122 1.018l.116 3.2a1.69 1.69 0 0 1-1.424 1.192l-4.095.477a1.693 1.693 0 0 1-.935-.159l-2.7-.732-8.869.9z"/><path d="M69.007 62.029a8.413 8.413 0 0 0 1.59-2.117.559.559 0 0 1 .794-.274h0a.556.556 0 0 1 .245.667l-.913 2.582a.557.557 0 0 1-.588.367l-1.372-.158.084-.737a.559.559 0 0 1 .16-.33z"/></g><path d="M50.35 69.516a4.346 4.346 0 0 1-3.745-1.94 70.836 70.836 0 0 1-4.257-7.35c-1.845-3.678-2.359-11.109-4.519-14.612 3.775 1.615 7.917 4.391 9.687 8.1 1.357 2.84 3.114 5.591 4.575 8.379l11.275-.2a2.587 2.587 0 0 1 2.545 1.9c.529 1.933.924 4.666-.944 4.981-2.173.363-10.48.63-14.617.742z" class="f"/><path d="M39.764 191.771l4.81-.129-.094-11.14-4.81.129z" class="d"/><path d="M44.764 189.408l-5.26.141a.426.426 0 0 0-.387.4l-.713 5.038a.856.856 0 0 0 .6.981.66.66 0 0 0 .136.011l7.009-.361 6.276.011c1.975-.053 2.409-2.412 1.574-2.6-3.808-.868-4.7-.948-8.064-3.226a2.031 2.031 0 0 0-1.171-.395z" class="c"/><path d="M44.48 180.508l-.076 6.284-4.81.129.076-6.284z" class="e"/><g class="b"><path d="M45.394 189.852a.109.109 0 0 1-.088-.059.11.11 0 0 1 .047-.148c.21-.12 2.073-1.139 2.657-.826a.358.358 0 0 1 .2.289.606.606 0 0 1-.181.552 1.764 1.764 0 0 1-1.144.324 8.027 8.027 0 0 1-1.491-.132zm.341-.17a2.981 2.981 0 0 0 2.11-.183.391.391 0 0 0 .117-.366.138.138 0 0 0-.073-.119.541.541 0 0 0-.214-.035 6.107 6.107 0 0 0-1.94.703z"/><path d="M45.142 189.686a.135.135 0 0 1-.049-.1 3.267 3.267 0 0 1 .642-1.844.79.79 0 0 1 .611-.207c.312.021.432.179.434.3.113.538-.954 1.587-1.523 1.861h-.046a.157.157 0 0 1-.069-.01zm.748-1.772a2.6 2.6 0 0 0-.536 1.478c.567-.367 1.294-1.193 1.228-1.508-.007-.028-.027-.126-.228-.12h-.069a.579.579 0 0 0-.396.15z"/></g><path d="M22.089 192.111l4.812-.057.073-11.14-4.816.056z" class="d"/><path d="M27.125 189.824l-5.262.062a.428.428 0 0 0-.393.39l-.788 5.027a.855.855 0 0 0 .589.99.618.618 0 0 0 .135.013l7.014-.256 6.275.1c1.976-.023 2.445-2.376 1.612-2.579-3.794-.925-4.69-1.018-8.016-3.346a2.032 2.032 0 0 0-1.166-.401z" class="c"/><path d="M26.973 180.92l-.17 6.282-4.812.057.17-6.282z" class="e"/><g class="b"><path d="M27.748 190.277a.11.11 0 0 1-.087-.061.109.109 0 0 1 .049-.147c.212-.118 2.089-1.108 2.67-.787a.36.36 0 0 1 .193.292.605.605 0 0 1-.189.55 1.765 1.765 0 0 1-1.148.307 8.063 8.063 0 0 1-1.488-.154zm.343-.166a2.985 2.985 0 0 0 2.113-.152.391.391 0 0 0 .122-.364.136.136 0 0 0-.071-.12.54.54 0 0 0-.213-.038 6.113 6.113 0 0 0-1.95.674z"/><path d="M27.498 190.107a.132.132 0 0 1-.047-.1 3.268 3.268 0 0 1 .669-1.834.79.79 0 0 1 .614-.2c.312.025.429.185.43.306.1.54-.978 1.573-1.551 1.839h-.046a.162.162 0 0 1-.069-.011zm.774-1.76a2.591 2.591 0 0 0-.558 1.47c.572-.358 1.311-1.174 1.25-1.49-.007-.028-.025-.126-.227-.124h-.069a.577.577 0 0 0-.4.144z"/></g><g class="i"><path d="M44.588 90.005l1.443 59.105.378 34.429a1.729 1.729 0 0 1-1.581 1.816l-5.725.111a1.706 1.706 0 0 1-1.639-1.616c-.832-7.712-3.8-19.906-2.863-34.363 0 0-4.845-37.805-5.317-49.366l.727-10.3z"/><path d="M32.98 106.129a162.368 162.368 0 0 1-.482 25.008l-2.5-17.557z"/></g><path d="M34.346 89.435L30.2 149.571l-1.659 34.391a1.73 1.73 0 0 1-1.685 1.719l-5.721-.228a1.705 1.705 0 0 1-1.541-1.71c-.375-7.747-2.621-20.1-.826-34.472 0 0-2.6-38.026-2.389-49.593l1.335-10.243z" class="f"/><path d="M26.962 43.662c.981-3.036.774-7.394.445-10.121l6.583 6.508a7.923 7.923 0 0 0-.416 3.619 1.312 1.312 0 0 0 1.141 1.11l2.8.876.331 2.168-1.692.437-2.155 2.815-5.6-2.815-5.873-2.73a10.9 10.9 0 0 1 2.736-.513 2.382 2.382 0 0 0 1.7-1.354z" class="d"/><use xlink:href="#V" class="b"/><use xlink:href="#V" class="g"/><path d="M30.085 36.698l3.793 3.717a8.753 8.753 0 0 0-.363 2.112 5.7 5.7 0 0 1-3.929-3.563c-.32-1.081.087-2.173.499-2.266z" class="k"/><path d="M26.411 28.616c.282 5 .2 7.941 2.715 10.514 3.778 3.878 9.962 1.6 11.169-3.372 1.093-4.509.436-11.91-4.448-13.918a6.825 6.825 0 0 0-8.927 3.672 6.819 6.819 0 0 0-.509 3.104z" class="d"/><g class="c"><path d="M25.055 23.839a6.741 6.741 0 0 0-3.838 4.683 6.739 6.739 0 0 0 1.57 5.848c1.032 1.138 2.474 1.94 3.168 3.31a1.412 1.412 0 0 1-.774 1.814 2.41 2.41 0 0 0 1.776-1.868 2.652 2.652 0 0 1-.47 2.087 4.4 4.4 0 0 0 1.508-4.272 5.342 5.342 0 0 1-1.906-4.231 4.868 4.868 0 0 1 2.195-3.836l-.407.184a8.1 8.1 0 0 0-2.822-3.719z"/><path d="M28.082 31.297a1.756 1.756 0 0 0-.741-.193.908.908 0 0 0-.838.345 1.352 1.352 0 0 0-.038 1.062q.582 2.377 1.285 4.723a15.352 15.352 0 0 1-4.352-9.462l4.714-.347zm6.274-1.361c.038.408.281.718.547.692s.448-.372.41-.779-.281-.712-.548-.686-.448.37-.409.773zm4.578-.339c.039.4.282.712.548.686s.448-.372.409-.774-.281-.718-.547-.692-.448.372-.41.78zm-6.367-1.546a.3.3 0 0 1-.111-.049.25.25 0 0 1 .024-.339 2.4 2.4 0 0 1 2.106-.567.242.242 0 0 1-.133.466h0a1.9 1.9 0 0 0-1.661.467.238.238 0 0 1-.225.022zm8.101-.33a.233.233 0 0 1-.229-.008 1.9 1.9 0 0 0-1.708-.143.239.239 0 1 1-.215-.427 2.382 2.382 0 0 1 2.181.153.233.233 0 0 1 .089.316v.006a.226.226 0 0 1-.118.103z"/></g><path d="M23.952 33.27a4.784 4.784 0 0 0 2.955 2.111c1.631.359 2.359-1.114 1.833-2.607-.472-1.339-1.89-3.147-3.488-2.846a2.13 2.13 0 0 0-1.3 3.342z" class="d"/><path fill="#ffba4d3c" d="M37.187 29.843a13.809 13.809 0 0 0 2.4 3.063 2.37 2.37 0 0 1-1.849.717z"/><path d="M34.523 44.692s4.17 1.761 5.7 13.02a179.9 179.9 0 0 1 1.668 31.719c-.417 9.87-.062 16.264 3 15.847 0 0 .278-5.307 0-22.961-.246-15.62.983-32.8-6.464-36.777a10.063 10.063 0 0 0-3.904-.848zm-9.207 0s5 2.78 5.56 20.388 1.391 40.634-4.54 41.19-12.418-2.78-12.418-2.78 3-18.842 3.613-25.25c.706-7.409-4.177-30.883-1-31.766a70.566 70.566 0 0 1 8.785-1.782z" class="e"/><path d="M24.807 94.628l-2.574-.37a2.873 2.873 53.184 0 1-2.429-3.252h0a0 0 0 0 1 0 0l8.256 1.187a0 0 0 0 1 0 0h0a2.873 2.873 53.184 0 1-3.253 2.435z" class="f"/><path d="M12.201 70.331l5.468 3.949 3.359-.449a1.69 1.69 0 0 1 1.106.234l2.042 1.249a1.689 1.689 0 0 1 .8 1.285l.1 1.1a1.69 1.69 0 0 1-.259 1.067l-.607.95a1.692 1.692 0 0 1-1.7.758l-4.069-.662a1.688 1.688 0 0 1-.857-.409l-2.182-1.955-6.965-3.983z" class="d"/><use xlink:href="#W" class="c"/><use xlink:href="#W" class="f"/><path d="M36.526 35.805a3.386 3.386 0 0 1-2.165-1.566.118.118 0 0 1 .046-.159.123.123 0 0 1 .16.052 3.249 3.249 0 0 0 2.439 1.524.118.118 0 1 1-.008.236h-.016a3.443 3.443 0 0 1-.456-.087zm-3.901-8.365a4.708 4.708 0 0 0 3.654-4.131c1.745.428 2.88 1.994 3.786 3.553a.846.846 0 0 0 1.305.212 1.344 1.344 0 0 0 .306-1.206 3.871 3.871 0 0 0-.56-1.232l-1.089-1.7a5.672 5.672 0 0 0-4.8-2.432l-.1.007a7.629 7.629 0 0 0-4.586-.765 7.543 7.543 0 0 0-4.3 2.23c-1.431 1.25-1.908 3.488-3.824 5.5a1.1 1.1 0 0 0 .768 1.873h0a22.671 22.671 0 0 0 9.438-1.908z" class="c"/><path d="M33.235,47.922l-1.621,1.955 1.621,2.233h2.081v-2.758Z" class="b"/><path fill="#ffa272ff" d="M33.237 52.11l.543 4.806c1.242 8.76-.717 19.507-.717 19.507l3.774 3.442s2.985-3.791 2.763-3.743a129.129 129.129 0 0 0-1.215-13.416 56.856 56.856 0 0 0-3.067-10.6z"/><g class="b"><use xlink:href="#X"/><use xlink:href="#X"/></g><defs><path id="A" d="M180.196 13.64h-1.737a1.585 1.585 0 0 0-1.564 1.486l-.42 8.014a1.4 1.4 0 0 0 1.408 1.491h1.733a1.584 1.584 0 0 0 1.563-1.486l.421-8.014a1.4 1.4 0 0 0-1.404-1.491zm.046 9.5a.581.581 0 0 1-.572.544h-1.737a.512.512 0 0 1-.516-.544l.42-8.014a.582.582 0 0 1 .573-.544h1.737a.512.512 0 0 1 .515.544z"/><path id="B" d="M28.013 110.26a.855.855 0 0 1-.854-.854.855.855 0 0 1 .854-.854h2.914a.854.854 0 0 1 0 1.708z"/><path id="C" d="M155.921 186.661c-.89 5.776-2.655 9.736-9.736 9.736-7.138 0-8.845-3.96-9.736-9.736-1.09-7.069 2.754-18.854 9.736-18.854s10.826 11.784 9.736 18.854z"/><path id="D" d="M145.973 169.338a9.247 9.247 0 0 1-6.4-4.037 12.058 12.058 0 0 1-2.04-8.043c2.793-.965 5.688-.848 7.658 1.975a10.709 10.709 0 0 1 .782 10.105z"/><path id="E" d="M140.919 166.066c-.516-3.512-4.248-5.9-7.8-5.857a12.591 12.591 0 0 0-6.416 2.053 3.311 3.311 0 0 0-.4 5.35 9.041 9.041 0 0 0 5.037 2.178 12.68 12.68 0 0 0 9.579-3.724z"/><path id="F" d="M143.386 168.761a3.646 3.646 0 0 0-4.888-3.3 10.9 10.9 0 0 0-4.822 3.445 10.99 10.99 0 0 0-2.3 6.685 4.139 4.139 0 0 0 4.762 4.119 7.66 7.66 0 0 0 2.946-1.09 9.989 9.989 0 0 0 3.969-5.788 14.149 14.149 0 0 0 .333-4.071z"/><path id="G" d="M156.768 158.86a9.135 9.135 0 0 0-6.852.1 8.962 8.962 0 0 0-2.213 1.362 4.114 4.114 0 0 0 1.209 7.067 6.459 6.459 0 0 0 5-.186c3.18-1.554 4.674-5.301 2.856-8.343z"/><path id="H" d="M153.857 162.255a6.964 6.964 0 0 0-2.328 2.939 3.384 3.384 0 0 0-.167 1.568c.228 1.594 1.473 2.105 2.61 2.41a20.418 20.418 0 0 0 11.683-.347 2.244 2.244 0 0 0 1.031-3.535 12.258 12.258 0 0 0-4.546-3.566c-2.406-1.011-6.229-1.249-8.283.531z"/><path id="I" d="M155.322 166.275a3.168 3.168 0 0 0-3.8 2.27 6.008 6.008 0 0 0 .117 3.364 8.057 8.057 0 0 0 4.533 4.625 12.15 12.15 0 0 0 3.47.888 2.791 2.791 0 0 0 3.1-3.055 10.478 10.478 0 0 0-1.86-5.027c-1.259-1.705-3.397-2.543-5.56-3.065z"/><path id="J" d="M148.653 166.233c-1.458-1.688-4.361-1.553-5.989-.029a6.454 6.454 0 0 0-1.53 6.2 13.28 13.28 0 0 0 3.4 5.676q.97 1.047 2.04 2a4.2 4.2 0 0 0 6.843-2.071l.016-.056c.623-2.255 1.253-4.6.87-6.907s-3.323-4.57-5.65-4.813z"/><path id="K" d="M97.568 32.725l-.052.741h-3.569l.333-4.759h3.474l-.052.741h-2.59l-.087 1.238h2.3l-.051.727h-2.3l-.092 1.312z"/><path id="L" d="M86.506 106.729l3.648-2.339 1.99 3.85 4.329-.2-.2 4.329 3.85 1.99-2.341 3.651 2.339 3.649-3.85 1.99.2 4.329-4.329-.2-1.99 3.85-3.646-2.344-3.649 2.339-1.99-3.85-4.329.2.2-4.329-3.85-1.99 2.339-3.649-2.339-3.648 3.85-1.99-.2-4.329 4.329.2 1.99-3.85z"/><path id="M" d="M189.805 89.4l.564-.01c.111 0 .2-.061.193-.13l-.258-2.433c0-.068-.108-.13-.218-.128l-.57.01c-.111 0-.194.056-.188.13l.253 2.428c.012.079.108.135.224.133z"/><path id="N" d="M172.93 89.339l.569-.01c.111 0 .2-.056.193-.13l-.258-2.433c0-.068-.107-.125-.218-.128l-.569.01c-.111 0-.2.056-.188.129l.252 2.429c.008.073.104.13.219.133z"/><path id="O" d="M181.363 89.37l.57-.009c.111 0 .2-.056.193-.13l-.258-2.428c0-.074-.108-.13-.218-.128l-.569.01c-.111 0-.194.061-.188.129l.252 2.434c.012.062.108.124.218.122z"/><path id="P" d="M178.875 66.076a.681.681 0 0 1-.682.682.682.682 0 1 1 .682-.682z"/><path id="Q" d="M170.561 74.606l-2.836.215a1.166 1.166 0 0 1-1.207-.936l-.3-1.66 4.88-.371.3 1.66a.906.906 0 0 1-.837 1.092z"/><path id="R" d="M190.207 57.456c-2.915 3.6-.544 15.823-.544 15.823l9.831-1.71s.349-8.714-2.473-12.607c-1.97-2.716-5.172-3.388-6.814-1.506z"/><path id="S" d="M127.281 156.6a18.634 18.634 0 0 0 .372-2.431c.34-2.747 1.969-4.873 4.023-5.292l1.482-.3a7.673 7.673 0 0 1-3.3-.679c-2.056-1.439-2.528-5.689-2.528-5.689s-.576 4.25-2.632 5.689a7.673 7.673 0 0 1-3.3.679l1.482.3c2.054.419 3.683 2.545 4.022 5.292a18.776 18.776 0 0 0 .379 2.431z"/><path id="T" d="M169.581 20.834a24.443 24.443 0 0 0 .484-3.166c.442-3.576 2.564-6.344 5.237-6.89l1.93-.394s-3.029 0-4.292-.884c-2.677-1.874-3.291-7.408-3.291-7.408s-.75 5.534-3.427 7.408c-1.263.884-4.292.884-4.292.884l1.93.394c2.673.546 4.795 3.313 5.237 6.89a24.234 24.234 0 0 0 .484 3.166z"/><path id="U" d="M57.312 34.147a18.652 18.652 0 0 0 .372-2.431c.339-2.747 1.969-4.872 4.022-5.292l1.482-.3a7.669 7.669 0 0 1-3.3-.679c-2.056-1.439-2.529-5.689-2.529-5.689s-.576 4.251-2.632 5.689a7.67 7.67 0 0 1-3.3.679l1.481.3c2.054.419 3.683 2.545 4.023 5.292a18.658 18.658 0 0 0 .381 2.431z"/><path id="V" d="M44.588 90.005l-27.823.571 5.3-45.33s.2-.071.6-.174l2.13-.38.022.011c.424.294 4.661 4.1 8.77 4.252 3.481.132 2.054-4.262 2.054-4.262l1.494.467.592.087 1.8 1.347s3.836 8.341 4.759 29.052z"/><path id="W" d="M16.159 78.444a1.629 1.629 0 0 1-2.055.356c-1.822-1.043-11-7.183-12.409-11.007-2-5.443 9.859-17.743 13.466-20.5 4.037-3.081 6.072 6.038 3.432 8.809l-8.391 8.73a.957.957 0 0 0 .209 1.51l8.052 6.88c.784.701-1.45 4.217-2.304 5.222z"/><path id="X" d="M33.651 43.016c.42.5.93.534 1.325 1.057a9.1 9.1 0 0 1 1.713 7.122l-.058.311a3.8 3.8 0 0 0-3.182-2.535 9.791 9.791 0 0 1-3.634 3.141 20.837 20.837 0 0 1-5.168-7.711l2.4-1.957a10.835 10.835 0 0 0 6.146 3.892c.081-1.023.371-2.299.458-3.32z"/><path id="Y" d="M132.323 49.574a4.45 4.772 45.972 1 0 6.862-6.633 4.45 4.772 45.972 1 0-6.862 6.633z"/><path id="Z" d="M74.607 129.777a16.709 16.709 90 1 1 23.63-23.63 16.709 16.709 0 1 1-23.63 23.63"/><path id="a" d="M184.963 190.828l-4.733.265-.177-5.125 4.733-.265z"/><path id="b" d="M180.05 185.212l.083 2.383 4.733-.286-.082-2.362z"/></defs></svg>